<svg width="299" height="79" viewBox="0 0 299 79" fill="none" xmlns="http://www.w3.org/2000/svg">
<g filter="url(#filter0_d_4041_6043)">
<mask id="path-1-outside-1_4041_6043" maskUnits="userSpaceOnUse" x="0.851334" y="0.239258" width="298" height="76" fill="black">
<rect fill="white" x="0.851334" y="0.239258" width="298" height="76"/>
<path d="M28.5153 46.2899C20.8593 46.2899 15.0013 44.5305 10.9413 41.0119C6.88133 37.4545 4.85133 32.1959 4.85133 25.2359C4.85133 18.3145 6.88133 13.0752 10.9413 9.51788C15.0013 5.96055 20.8593 4.20122 28.5153 4.23988L49.3953 4.35588V11.7799H29.1533C24.1267 11.7799 20.3953 12.8432 17.9593 14.9699C15.5233 17.0965 14.3053 20.5185 14.3053 25.2359C14.3053 29.9532 15.5233 33.3945 17.9593 35.5599C20.3953 37.6866 24.1267 38.7499 29.1533 38.7499H49.9753V46.2899H28.5153Z"/>
<path d="M70.211 46.2899C65.0297 46.2899 60.989 45.0139 58.089 42.4619C55.189 39.8712 53.739 36.0819 53.739 31.0939C53.739 26.0672 55.189 22.2779 58.089 19.7259C60.989 17.1352 65.0297 15.8399 70.211 15.8399H80.941C86.1223 15.8399 90.163 17.1352 93.063 19.7259C95.963 22.2779 97.413 26.0672 97.413 31.0939C97.413 36.0819 95.963 39.8712 93.063 42.4619C90.163 45.0139 86.1223 46.2899 80.941 46.2899H70.211ZM70.211 39.6199H80.941C83.4543 39.6199 85.3683 38.9239 86.683 37.5319C88.0363 36.1399 88.713 33.9939 88.713 31.0939C88.713 28.1552 88.0363 25.9899 86.683 24.5979C85.3683 23.2059 83.4543 22.5099 80.941 22.5099H70.211C67.6977 22.5099 65.7643 23.2059 64.411 24.5979C63.0963 25.9899 62.439 28.1552 62.439 31.0939C62.439 33.9939 63.0963 36.1399 64.411 37.5319C65.7643 38.9239 67.6977 39.6199 70.211 39.6199Z"/>
<path d="M102.647 45.9999V16.1299H128.689C132.092 16.1299 134.566 16.9805 136.113 18.6819C137.698 20.3445 138.491 22.5485 138.491 25.2939V45.9999H130.081V26.2799C130.081 23.9599 128.921 22.7999 126.601 22.7999H111.057V45.9999H102.647Z"/>
<path d="M143.575 46.2899V39.6199H171.995C173.619 39.6199 174.431 38.7112 174.431 36.8939C174.431 35.1152 173.619 34.2259 171.995 34.2259H153.609C150.168 34.2259 147.558 33.4525 145.779 31.9059C144 30.3205 143.111 28.0585 143.111 25.1199C143.111 22.1425 144 19.8612 145.779 18.2759C147.596 16.6519 150.206 15.8399 153.609 15.8399H180.057V22.5099H154.015C152.352 22.5099 151.521 23.3219 151.521 24.9459C151.521 25.7579 151.753 26.3959 152.217 26.8599C152.681 27.3239 153.28 27.5559 154.015 27.5559H173.503C176.519 27.5559 178.82 28.3485 180.405 29.9339C182.029 31.4805 182.841 33.7425 182.841 36.7199C182.841 39.7359 182.029 42.0945 180.405 43.7959C178.781 45.4585 176.48 46.2899 173.503 46.2899H143.575Z"/>
<path d="M203.322 45.9999C199.958 45.9999 197.483 45.1685 195.898 43.5059C194.313 41.8045 193.52 39.5812 193.52 36.8359V22.7999H184.878V16.1299H193.52V6.96588H201.93V16.1299H214.342V22.7999H201.93V35.7919C201.93 38.1505 203.09 39.3299 205.41 39.3299H215.966V45.9999H203.322Z"/>
<path d="M220.29 45.9999V16.1299H243.142C246.506 16.1299 248.98 16.9805 250.566 18.6819C252.151 20.3445 252.944 22.5485 252.944 25.2939V31.4999H244.418V26.3379C244.418 24.0179 243.258 22.8579 240.938 22.8579H228.816V45.9999H220.29Z"/>
<path d="M267.071 45.9999C263.668 45.9999 261.174 45.1492 259.589 43.4479C258.042 41.7466 257.269 39.5426 257.269 36.8359V16.1299H265.679V35.8499C265.679 38.1699 266.839 39.3299 269.159 39.3299H281.223C283.543 39.3299 284.703 38.1699 284.703 35.8499V16.1299H293.113V36.8359C293.113 39.5426 292.32 41.7466 290.735 43.4479C289.188 45.1492 286.714 45.9999 283.311 45.9999H267.071Z"/>
<path d="M225.224 71.9999L232.952 54.8399H238.88L246.608 71.9999H242.432L240.8 68.3759H231.032L229.4 71.9999H225.224ZM232.424 65.2559H239.408L236.072 57.8399H235.76L232.424 65.2559Z"/>
<path d="M248.532 71.9999V54.8399H262.908C264.684 54.8399 266.06 55.2879 267.036 56.1839C268.028 57.0799 268.524 58.4399 268.524 60.2639C268.524 62.0879 268.028 63.4479 267.036 64.3439C266.06 65.2399 264.684 65.6879 262.908 65.6879H252.372V71.9999H248.532ZM262.452 57.9599H252.372V62.5439L262.452 62.5679C263.156 62.5679 263.692 62.3919 264.06 62.0399C264.444 61.6879 264.636 61.0959 264.636 60.2639C264.636 59.4159 264.444 58.8239 264.06 58.4879C263.692 58.1359 263.156 57.9599 262.452 57.9599Z"/>
<path d="M270.914 71.9999V54.8399H285.29C287.066 54.8399 288.442 55.2879 289.418 56.1839C290.41 57.0799 290.906 58.4399 290.906 60.2639C290.906 62.0879 290.41 63.4479 289.418 64.3439C288.442 65.2399 287.066 65.6879 285.29 65.6879H274.754V71.9999H270.914ZM284.834 57.9599H274.754V62.5439L284.834 62.5679C285.538 62.5679 286.074 62.3919 286.442 62.0399C286.826 61.6879 287.018 61.0959 287.018 60.2639C287.018 59.4159 286.826 58.8239 286.442 58.4879C286.074 58.1359 285.538 57.9599 284.834 57.9599Z"/>
<path d="M290.667 71.9999V68.5679H294.507V71.9999H290.667Z"/>
</mask>
<path d="M28.5153 46.2899C20.8593 46.2899 15.0013 44.5305 10.9413 41.0119C6.88133 37.4545 4.85133 32.1959 4.85133 25.2359C4.85133 18.3145 6.88133 13.0752 10.9413 9.51788C15.0013 5.96055 20.8593 4.20122 28.5153 4.23988L49.3953 4.35588V11.7799H29.1533C24.1267 11.7799 20.3953 12.8432 17.9593 14.9699C15.5233 17.0965 14.3053 20.5185 14.3053 25.2359C14.3053 29.9532 15.5233 33.3945 17.9593 35.5599C20.3953 37.6866 24.1267 38.7499 29.1533 38.7499H49.9753V46.2899H28.5153Z" fill="url(#paint0_linear_4041_6043)"/>
<path d="M70.211 46.2899C65.0297 46.2899 60.989 45.0139 58.089 42.4619C55.189 39.8712 53.739 36.0819 53.739 31.0939C53.739 26.0672 55.189 22.2779 58.089 19.7259C60.989 17.1352 65.0297 15.8399 70.211 15.8399H80.941C86.1223 15.8399 90.163 17.1352 93.063 19.7259C95.963 22.2779 97.413 26.0672 97.413 31.0939C97.413 36.0819 95.963 39.8712 93.063 42.4619C90.163 45.0139 86.1223 46.2899 80.941 46.2899H70.211ZM70.211 39.6199H80.941C83.4543 39.6199 85.3683 38.9239 86.683 37.5319C88.0363 36.1399 88.713 33.9939 88.713 31.0939C88.713 28.1552 88.0363 25.9899 86.683 24.5979C85.3683 23.2059 83.4543 22.5099 80.941 22.5099H70.211C67.6977 22.5099 65.7643 23.2059 64.411 24.5979C63.0963 25.9899 62.439 28.1552 62.439 31.0939C62.439 33.9939 63.0963 36.1399 64.411 37.5319C65.7643 38.9239 67.6977 39.6199 70.211 39.6199Z" fill="url(#paint1_linear_4041_6043)"/>
<path d="M102.647 45.9999V16.1299H128.689C132.092 16.1299 134.566 16.9805 136.113 18.6819C137.698 20.3445 138.491 22.5485 138.491 25.2939V45.9999H130.081V26.2799C130.081 23.9599 128.921 22.7999 126.601 22.7999H111.057V45.9999H102.647Z" fill="url(#paint2_linear_4041_6043)"/>
<path d="M143.575 46.2899V39.6199H171.995C173.619 39.6199 174.431 38.7112 174.431 36.8939C174.431 35.1152 173.619 34.2259 171.995 34.2259H153.609C150.168 34.2259 147.558 33.4525 145.779 31.9059C144 30.3205 143.111 28.0585 143.111 25.1199C143.111 22.1425 144 19.8612 145.779 18.2759C147.596 16.6519 150.206 15.8399 153.609 15.8399H180.057V22.5099H154.015C152.352 22.5099 151.521 23.3219 151.521 24.9459C151.521 25.7579 151.753 26.3959 152.217 26.8599C152.681 27.3239 153.28 27.5559 154.015 27.5559H173.503C176.519 27.5559 178.82 28.3485 180.405 29.9339C182.029 31.4805 182.841 33.7425 182.841 36.7199C182.841 39.7359 182.029 42.0945 180.405 43.7959C178.781 45.4585 176.48 46.2899 173.503 46.2899H143.575Z" fill="url(#paint3_linear_4041_6043)"/>
<path d="M203.322 45.9999C199.958 45.9999 197.483 45.1685 195.898 43.5059C194.313 41.8045 193.52 39.5812 193.52 36.8359V22.7999H184.878V16.1299H193.52V6.96588H201.93V16.1299H214.342V22.7999H201.93V35.7919C201.93 38.1505 203.09 39.3299 205.41 39.3299H215.966V45.9999H203.322Z" fill="url(#paint4_linear_4041_6043)"/>
<path d="M220.29 45.9999V16.1299H243.142C246.506 16.1299 248.98 16.9805 250.566 18.6819C252.151 20.3445 252.944 22.5485 252.944 25.2939V31.4999H244.418V26.3379C244.418 24.0179 243.258 22.8579 240.938 22.8579H228.816V45.9999H220.29Z" fill="url(#paint5_linear_4041_6043)"/>
<path d="M267.071 45.9999C263.668 45.9999 261.174 45.1492 259.589 43.4479C258.042 41.7466 257.269 39.5426 257.269 36.8359V16.1299H265.679V35.8499C265.679 38.1699 266.839 39.3299 269.159 39.3299H281.223C283.543 39.3299 284.703 38.1699 284.703 35.8499V16.1299H293.113V36.8359C293.113 39.5426 292.32 41.7466 290.735 43.4479C289.188 45.1492 286.714 45.9999 283.311 45.9999H267.071Z" fill="url(#paint6_linear_4041_6043)"/>
<path d="M225.224 71.9999L232.952 54.8399H238.88L246.608 71.9999H242.432L240.8 68.3759H231.032L229.4 71.9999H225.224ZM232.424 65.2559H239.408L236.072 57.8399H235.76L232.424 65.2559Z" fill="url(#paint7_linear_4041_6043)"/>
<path d="M248.532 71.9999V54.8399H262.908C264.684 54.8399 266.06 55.2879 267.036 56.1839C268.028 57.0799 268.524 58.4399 268.524 60.2639C268.524 62.0879 268.028 63.4479 267.036 64.3439C266.06 65.2399 264.684 65.6879 262.908 65.6879H252.372V71.9999H248.532ZM262.452 57.9599H252.372V62.5439L262.452 62.5679C263.156 62.5679 263.692 62.3919 264.06 62.0399C264.444 61.6879 264.636 61.0959 264.636 60.2639C264.636 59.4159 264.444 58.8239 264.06 58.4879C263.692 58.1359 263.156 57.9599 262.452 57.9599Z" fill="url(#paint8_linear_4041_6043)"/>
<path d="M270.914 71.9999V54.8399H285.29C287.066 54.8399 288.442 55.2879 289.418 56.1839C290.41 57.0799 290.906 58.4399 290.906 60.2639C290.906 62.0879 290.41 63.4479 289.418 64.3439C288.442 65.2399 287.066 65.6879 285.29 65.6879H274.754V71.9999H270.914ZM284.834 57.9599H274.754V62.5439L284.834 62.5679C285.538 62.5679 286.074 62.3919 286.442 62.0399C286.826 61.6879 287.018 61.0959 287.018 60.2639C287.018 59.4159 286.826 58.8239 286.442 58.4879C286.074 58.1359 285.538 57.9599 284.834 57.9599Z" fill="url(#paint9_linear_4041_6043)"/>
<path d="M290.667 71.9999V68.5679H294.507V71.9999H290.667Z" fill="url(#paint10_linear_4041_6043)"/>
<path d="M28.5153 46.2899C20.8593 46.2899 15.0013 44.5305 10.9413 41.0119C6.88133 37.4545 4.85133 32.1959 4.85133 25.2359C4.85133 18.3145 6.88133 13.0752 10.9413 9.51788C15.0013 5.96055 20.8593 4.20122 28.5153 4.23988L49.3953 4.35588V11.7799H29.1533C24.1267 11.7799 20.3953 12.8432 17.9593 14.9699C15.5233 17.0965 14.3053 20.5185 14.3053 25.2359C14.3053 29.9532 15.5233 33.3945 17.9593 35.5599C20.3953 37.6866 24.1267 38.7499 29.1533 38.7499H49.9753V46.2899H28.5153Z" stroke="#000227" stroke-width="8" mask="url(#path-1-outside-1_4041_6043)"/>
<path d="M70.211 46.2899C65.0297 46.2899 60.989 45.0139 58.089 42.4619C55.189 39.8712 53.739 36.0819 53.739 31.0939C53.739 26.0672 55.189 22.2779 58.089 19.7259C60.989 17.1352 65.0297 15.8399 70.211 15.8399H80.941C86.1223 15.8399 90.163 17.1352 93.063 19.7259C95.963 22.2779 97.413 26.0672 97.413 31.0939C97.413 36.0819 95.963 39.8712 93.063 42.4619C90.163 45.0139 86.1223 46.2899 80.941 46.2899H70.211ZM70.211 39.6199H80.941C83.4543 39.6199 85.3683 38.9239 86.683 37.5319C88.0363 36.1399 88.713 33.9939 88.713 31.0939C88.713 28.1552 88.0363 25.9899 86.683 24.5979C85.3683 23.2059 83.4543 22.5099 80.941 22.5099H70.211C67.6977 22.5099 65.7643 23.2059 64.411 24.5979C63.0963 25.9899 62.439 28.1552 62.439 31.0939C62.439 33.9939 63.0963 36.1399 64.411 37.5319C65.7643 38.9239 67.6977 39.6199 70.211 39.6199Z" stroke="#000227" stroke-width="8" mask="url(#path-1-outside-1_4041_6043)"/>
<path d="M102.647 45.9999V16.1299H128.689C132.092 16.1299 134.566 16.9805 136.113 18.6819C137.698 20.3445 138.491 22.5485 138.491 25.2939V45.9999H130.081V26.2799C130.081 23.9599 128.921 22.7999 126.601 22.7999H111.057V45.9999H102.647Z" stroke="#000227" stroke-width="8" mask="url(#path-1-outside-1_4041_6043)"/>
<path d="M143.575 46.2899V39.6199H171.995C173.619 39.6199 174.431 38.7112 174.431 36.8939C174.431 35.1152 173.619 34.2259 171.995 34.2259H153.609C150.168 34.2259 147.558 33.4525 145.779 31.9059C144 30.3205 143.111 28.0585 143.111 25.1199C143.111 22.1425 144 19.8612 145.779 18.2759C147.596 16.6519 150.206 15.8399 153.609 15.8399H180.057V22.5099H154.015C152.352 22.5099 151.521 23.3219 151.521 24.9459C151.521 25.7579 151.753 26.3959 152.217 26.8599C152.681 27.3239 153.28 27.5559 154.015 27.5559H173.503C176.519 27.5559 178.82 28.3485 180.405 29.9339C182.029 31.4805 182.841 33.7425 182.841 36.7199C182.841 39.7359 182.029 42.0945 180.405 43.7959C178.781 45.4585 176.48 46.2899 173.503 46.2899H143.575Z" stroke="#000227" stroke-width="8" mask="url(#path-1-outside-1_4041_6043)"/>
<path d="M203.322 45.9999C199.958 45.9999 197.483 45.1685 195.898 43.5059C194.313 41.8045 193.52 39.5812 193.52 36.8359V22.7999H184.878V16.1299H193.52V6.96588H201.93V16.1299H214.342V22.7999H201.93V35.7919C201.93 38.1505 203.09 39.3299 205.41 39.3299H215.966V45.9999H203.322Z" stroke="#000227" stroke-width="8" mask="url(#path-1-outside-1_4041_6043)"/>
<path d="M220.29 45.9999V16.1299H243.142C246.506 16.1299 248.98 16.9805 250.566 18.6819C252.151 20.3445 252.944 22.5485 252.944 25.2939V31.4999H244.418V26.3379C244.418 24.0179 243.258 22.8579 240.938 22.8579H228.816V45.9999H220.29Z" stroke="#000227" stroke-width="8" mask="url(#path-1-outside-1_4041_6043)"/>
<path d="M267.071 45.9999C263.668 45.9999 261.174 45.1492 259.589 43.4479C258.042 41.7466 257.269 39.5426 257.269 36.8359V16.1299H265.679V35.8499C265.679 38.1699 266.839 39.3299 269.159 39.3299H281.223C283.543 39.3299 284.703 38.1699 284.703 35.8499V16.1299H293.113V36.8359C293.113 39.5426 292.32 41.7466 290.735 43.4479C289.188 45.1492 286.714 45.9999 283.311 45.9999H267.071Z" stroke="#000227" stroke-width="8" mask="url(#path-1-outside-1_4041_6043)"/>
<path d="M225.224 71.9999L232.952 54.8399H238.88L246.608 71.9999H242.432L240.8 68.3759H231.032L229.4 71.9999H225.224ZM232.424 65.2559H239.408L236.072 57.8399H235.76L232.424 65.2559Z" stroke="#000227" stroke-width="8" mask="url(#path-1-outside-1_4041_6043)"/>
<path d="M248.532 71.9999V54.8399H262.908C264.684 54.8399 266.06 55.2879 267.036 56.1839C268.028 57.0799 268.524 58.4399 268.524 60.2639C268.524 62.0879 268.028 63.4479 267.036 64.3439C266.06 65.2399 264.684 65.6879 262.908 65.6879H252.372V71.9999H248.532ZM262.452 57.9599H252.372V62.5439L262.452 62.5679C263.156 62.5679 263.692 62.3919 264.06 62.0399C264.444 61.6879 264.636 61.0959 264.636 60.2639C264.636 59.4159 264.444 58.8239 264.06 58.4879C263.692 58.1359 263.156 57.9599 262.452 57.9599Z" stroke="#000227" stroke-width="8" mask="url(#path-1-outside-1_4041_6043)"/>
<path d="M270.914 71.9999V54.8399H285.29C287.066 54.8399 288.442 55.2879 289.418 56.1839C290.41 57.0799 290.906 58.4399 290.906 60.2639C290.906 62.0879 290.41 63.4479 289.418 64.3439C288.442 65.2399 287.066 65.6879 285.29 65.6879H274.754V71.9999H270.914ZM284.834 57.9599H274.754V62.5439L284.834 62.5679C285.538 62.5679 286.074 62.3919 286.442 62.0399C286.826 61.6879 287.018 61.0959 287.018 60.2639C287.018 59.4159 286.826 58.8239 286.442 58.4879C286.074 58.1359 285.538 57.9599 284.834 57.9599Z" stroke="#000227" stroke-width="8" mask="url(#path-1-outside-1_4041_6043)"/>
<path d="M290.667 71.9999V68.5679H294.507V71.9999H290.667Z" stroke="#000227" stroke-width="8" mask="url(#path-1-outside-1_4041_6043)"/>
</g>
<defs>
<filter id="filter0_d_4041_6043" x="0.451334" y="0.239258" width="298.455" height="78.1607" filterUnits="userSpaceOnUse" color-interpolation-filters="sRGB">
<feFlood flood-opacity="0" result="BackgroundImageFix"/>
<feColorMatrix in="SourceAlpha" type="matrix" values="0 0 0 0 0 0 0 0 0 0 0 0 0 0 0 0 0 0 127 0" result="hardAlpha"/>
<feOffset dy="2"/>
<feGaussianBlur stdDeviation="0.2"/>
<feComposite in2="hardAlpha" operator="out"/>
<feColorMatrix type="matrix" values="0 0 0 0 0 0 0 0 0 0 0 0 0 0 0 0 0 0 0.25 0"/>
<feBlend mode="normal" in2="BackgroundImageFix" result="effect1_dropShadow_4041_6043"/>
<feBlend mode="normal" in="SourceGraphic" in2="effect1_dropShadow_4041_6043" result="shape"/>
</filter>
<linearGradient id="paint0_linear_4041_6043" x1="161.558" y1="-2.04238" x2="144.526" y2="87.0491" gradientUnits="userSpaceOnUse">
<stop stop-color="#0276CA"/>
<stop offset="1" stop-color="#00FF94"/>
</linearGradient>
<linearGradient id="paint1_linear_4041_6043" x1="161.558" y1="-2.04238" x2="144.526" y2="87.0491" gradientUnits="userSpaceOnUse">
<stop stop-color="#0276CA"/>
<stop offset="1" stop-color="#00FF94"/>
</linearGradient>
<linearGradient id="paint2_linear_4041_6043" x1="161.558" y1="-2.04238" x2="144.526" y2="87.0491" gradientUnits="userSpaceOnUse">
<stop stop-color="#0276CA"/>
<stop offset="1" stop-color="#00FF94"/>
</linearGradient>
<linearGradient id="paint3_linear_4041_6043" x1="161.558" y1="-2.04238" x2="144.526" y2="87.0491" gradientUnits="userSpaceOnUse">
<stop stop-color="#0276CA"/>
<stop offset="1" stop-color="#00FF94"/>
</linearGradient>
<linearGradient id="paint4_linear_4041_6043" x1="161.558" y1="-2.04238" x2="144.526" y2="87.0491" gradientUnits="userSpaceOnUse">
<stop stop-color="#0276CA"/>
<stop offset="1" stop-color="#00FF94"/>
</linearGradient>
<linearGradient id="paint5_linear_4041_6043" x1="161.558" y1="-2.04238" x2="144.526" y2="87.0491" gradientUnits="userSpaceOnUse">
<stop stop-color="#0276CA"/>
<stop offset="1" stop-color="#00FF94"/>
</linearGradient>
<linearGradient id="paint6_linear_4041_6043" x1="161.558" y1="-2.04238" x2="144.526" y2="87.0491" gradientUnits="userSpaceOnUse">
<stop stop-color="#0276CA"/>
<stop offset="1" stop-color="#00FF94"/>
</linearGradient>
<linearGradient id="paint7_linear_4041_6043" x1="161.558" y1="-2.04238" x2="144.526" y2="87.0491" gradientUnits="userSpaceOnUse">
<stop stop-color="#0276CA"/>
<stop offset="1" stop-color="#00FF94"/>
</linearGradient>
<linearGradient id="paint8_linear_4041_6043" x1="161.558" y1="-2.04238" x2="144.526" y2="87.0491" gradientUnits="userSpaceOnUse">
<stop stop-color="#0276CA"/>
<stop offset="1" stop-color="#00FF94"/>
</linearGradient>
<linearGradient id="paint9_linear_4041_6043" x1="161.558" y1="-2.04238" x2="144.526" y2="87.0491" gradientUnits="userSpaceOnUse">
<stop stop-color="#0276CA"/>
<stop offset="1" stop-color="#00FF94"/>
</linearGradient>
<linearGradient id="paint10_linear_4041_6043" x1="161.558" y1="-2.04238" x2="144.526" y2="87.0491" gradientUnits="userSpaceOnUse">
<stop stop-color="#0276CA"/>
<stop offset="1" stop-color="#00FF94"/>
</linearGradient>
</defs>
</svg>
