<svg xmlns="http://www.w3.org/2000/svg" xmlns:xlink="http://www.w3.org/1999/xlink" width="463" zoomAndPan="magnify" viewBox="0 0 347.25 250.500001" height="334" preserveAspectRatio="xMidYMid meet" version="1.0"><defs><g/><clipPath id="21f1a76e3e"><path d="M 35.167969 8.742188 L 276.148438 8.742188 L 276.148438 249.722656 L 35.167969 249.722656 Z M 35.167969 8.742188 " clip-rule="nonzero"/></clipPath><clipPath id="e9aca9e257"><path d="M 39.96875 0.0195312 L 280.945312 0.0195312 L 280.945312 241 L 39.96875 241 Z M 39.96875 0.0195312 " clip-rule="nonzero"/></clipPath></defs><g clip-path="url(#21f1a76e3e)"><path fill="#000147" d="M 269.246094 124.273438 L 160.769531 15.796875 C 156.367188 11.457031 150.339844 8.742188 143.707031 8.742188 L 59.289062 8.742188 C 45.964844 8.742188 35.167969 19.535156 35.167969 32.863281 L 35.167969 117.28125 C 35.167969 123.972656 37.882812 130.003906 42.285156 134.34375 L 150.820312 242.878906 C 155.160156 247.21875 161.191406 249.933594 167.824219 249.933594 C 174.457031 249.933594 180.546875 247.21875 184.886719 242.878906 L 269.304688 158.460938 C 273.648438 154.0625 276.359375 148.03125 276.359375 141.398438 C 276.359375 134.707031 273.648438 128.675781 269.246094 124.273438 Z M 77.378906 69.042969 C 67.367188 69.042969 59.289062 60.960938 59.289062 50.953125 C 59.289062 40.941406 67.367188 32.863281 77.378906 32.863281 C 87.386719 32.863281 95.46875 40.941406 95.46875 50.953125 C 95.46875 60.960938 87.386719 69.042969 77.378906 69.042969 Z M 77.378906 69.042969 " fill-opacity="1" fill-rule="nonzero"/></g><g clip-path="url(#e9aca9e257)"><path fill="#004aad" d="M 274.042969 115.550781 L 165.566406 7.074219 C 161.164062 2.734375 155.136719 0.0195312 148.503906 0.0195312 L 64.085938 0.0195312 C 50.761719 0.0195312 39.96875 10.8125 39.96875 24.140625 L 39.96875 108.554688 C 39.96875 115.25 42.679688 121.277344 47.082031 125.621094 L 155.617188 234.15625 C 159.960938 238.496094 165.988281 241.210938 172.621094 241.210938 C 179.253906 241.210938 185.34375 238.496094 189.6875 234.15625 L 274.101562 149.738281 C 278.445312 145.335938 281.15625 139.308594 281.15625 132.675781 C 281.15625 125.980469 278.445312 119.953125 274.042969 115.550781 Z M 82.175781 60.316406 C 72.167969 60.316406 64.085938 52.238281 64.085938 42.230469 C 64.085938 32.21875 72.167969 24.140625 82.175781 24.140625 C 92.183594 24.140625 100.265625 32.21875 100.265625 42.230469 C 100.265625 52.238281 92.183594 60.316406 82.175781 60.316406 Z M 82.175781 60.316406 " fill-opacity="1" fill-rule="nonzero"/></g><path stroke-linecap="round" transform="matrix(0.748384, 0, 0, 0.748384, 152.837996, 163.841039)" fill="none" stroke-linejoin="miter" d="M 1.50049 1.501642 L 52.699376 1.501642 " stroke="#ffffff" stroke-width="3" stroke-opacity="1" stroke-miterlimit="4"/><g fill="#020207" fill-opacity="1"><g transform="translate(83.163222, 148.062754)"><g><path d="M 26.3125 -21.515625 C 26.3125 -17.992188 25.269531 -15.269531 23.1875 -13.34375 C 21.113281 -11.425781 18.160156 -10.46875 14.328125 -10.46875 L 11.9375 -10.46875 L 11.9375 0 L 3.40625 0 L 3.40625 -31.5625 L 14.328125 -31.5625 C 18.316406 -31.5625 21.3125 -30.6875 23.3125 -28.9375 C 25.3125 -27.195312 26.3125 -24.722656 26.3125 -21.515625 Z M 11.9375 -17.421875 L 13.484375 -17.421875 C 14.765625 -17.421875 15.78125 -17.78125 16.53125 -18.5 C 17.289062 -19.21875 17.671875 -20.207031 17.671875 -21.46875 C 17.671875 -23.601562 16.492188 -24.671875 14.140625 -24.671875 L 11.9375 -24.671875 Z M 11.9375 -17.421875 "/></g></g></g><g fill="#020207" fill-opacity="1"><g transform="translate(108.877832, 148.062754)"><g><path d="M 22.140625 0 L 3.40625 0 L 3.40625 -31.5625 L 22.140625 -31.5625 L 22.140625 -24.71875 L 11.9375 -24.71875 L 11.9375 -19.75 L 21.390625 -19.75 L 21.390625 -12.90625 L 11.9375 -12.90625 L 11.9375 -6.953125 L 22.140625 -6.953125 Z M 22.140625 0 "/></g></g></g><g fill="#020207" fill-opacity="1"><g transform="translate(130.923843, 148.062754)"><g><path d="M 30.203125 -16.453125 C 30.203125 -11.179688 28.75 -7.117188 25.84375 -4.265625 C 22.945312 -1.421875 18.875 0 13.625 0 L 3.40625 0 L 3.40625 -31.5625 L 14.328125 -31.5625 C 19.390625 -31.5625 23.300781 -30.265625 26.0625 -27.671875 C 28.820312 -25.078125 30.203125 -21.335938 30.203125 -16.453125 Z M 21.34375 -16.140625 C 21.34375 -19.035156 20.769531 -21.179688 19.625 -22.578125 C 18.488281 -23.972656 16.753906 -24.671875 14.421875 -24.671875 L 11.9375 -24.671875 L 11.9375 -7 L 13.828125 -7 C 16.421875 -7 18.320312 -7.75 19.53125 -9.25 C 20.738281 -10.75 21.34375 -13.046875 21.34375 -16.140625 Z M 21.34375 -16.140625 "/></g></g></g><g fill="#020207" fill-opacity="1"><g transform="translate(161.148674, 148.062754)"><g><path d="M 3.40625 0 L 3.40625 -31.5625 L 11.984375 -31.5625 L 11.984375 0 Z M 3.40625 0 "/></g></g></g><g fill="#020207" fill-opacity="1"><g transform="translate(174.325313, 148.062754)"><g><path d="M 30.203125 -16.453125 C 30.203125 -11.179688 28.75 -7.117188 25.84375 -4.265625 C 22.945312 -1.421875 18.875 0 13.625 0 L 3.40625 0 L 3.40625 -31.5625 L 14.328125 -31.5625 C 19.390625 -31.5625 23.300781 -30.265625 26.0625 -27.671875 C 28.820312 -25.078125 30.203125 -21.335938 30.203125 -16.453125 Z M 21.34375 -16.140625 C 21.34375 -19.035156 20.769531 -21.179688 19.625 -22.578125 C 18.488281 -23.972656 16.753906 -24.671875 14.421875 -24.671875 L 11.9375 -24.671875 L 11.9375 -7 L 13.828125 -7 C 16.421875 -7 18.320312 -7.75 19.53125 -9.25 C 20.738281 -10.75 21.34375 -13.046875 21.34375 -16.140625 Z M 21.34375 -16.140625 "/></g></g></g><g fill="#020207" fill-opacity="1"><g transform="translate(204.550145, 148.062754)"><g><path d="M 32.9375 -15.828125 C 32.9375 -10.515625 31.632812 -6.472656 29.03125 -3.703125 C 26.425781 -0.941406 22.613281 0.4375 17.59375 0.4375 C 12.644531 0.4375 8.847656 -0.953125 6.203125 -3.734375 C 3.566406 -6.515625 2.25 -10.554688 2.25 -15.859375 C 2.25 -21.109375 3.5625 -25.117188 6.1875 -27.890625 C 8.8125 -30.660156 12.628906 -32.046875 17.640625 -32.046875 C 22.660156 -32.046875 26.460938 -30.671875 29.046875 -27.921875 C 31.640625 -25.179688 32.9375 -21.148438 32.9375 -15.828125 Z M 11.21875 -15.828125 C 11.21875 -9.722656 13.34375 -6.671875 17.59375 -6.671875 C 19.75 -6.671875 21.347656 -7.410156 22.390625 -8.890625 C 23.429688 -10.367188 23.953125 -12.679688 23.953125 -15.828125 C 23.953125 -18.972656 23.421875 -21.296875 22.359375 -22.796875 C 21.304688 -24.304688 19.734375 -25.0625 17.640625 -25.0625 C 13.359375 -25.0625 11.21875 -21.984375 11.21875 -15.828125 Z M 11.21875 -15.828125 "/></g></g></g><g fill="#020207" fill-opacity="1"><g transform="translate(237.558791, 148.062754)"><g><path d="M 24.046875 -9.578125 C 24.046875 -7.617188 23.546875 -5.878906 22.546875 -4.359375 C 21.554688 -2.847656 20.125 -1.671875 18.25 -0.828125 C 16.382812 0.015625 14.191406 0.4375 11.671875 0.4375 C 9.578125 0.4375 7.816406 0.289062 6.390625 0 C 4.960938 -0.300781 3.476562 -0.816406 1.9375 -1.546875 L 1.9375 -9.15625 C 3.5625 -8.320312 5.25 -7.671875 7 -7.203125 C 8.757812 -6.734375 10.375 -6.5 11.84375 -6.5 C 13.113281 -6.5 14.039062 -6.71875 14.625 -7.15625 C 15.21875 -7.59375 15.515625 -8.15625 15.515625 -8.84375 C 15.515625 -9.28125 15.394531 -9.660156 15.15625 -9.984375 C 14.925781 -10.304688 14.546875 -10.628906 14.015625 -10.953125 C 13.492188 -11.285156 12.097656 -11.96875 9.828125 -13 C 7.765625 -13.925781 6.21875 -14.828125 5.1875 -15.703125 C 4.15625 -16.585938 3.390625 -17.597656 2.890625 -18.734375 C 2.398438 -19.867188 2.15625 -21.210938 2.15625 -22.765625 C 2.15625 -25.671875 3.210938 -27.9375 5.328125 -29.5625 C 7.441406 -31.195312 10.347656 -32.015625 14.046875 -32.015625 C 17.316406 -32.015625 20.648438 -31.253906 24.046875 -29.734375 L 21.4375 -23.15625 C 18.488281 -24.507812 15.941406 -25.1875 13.796875 -25.1875 C 12.679688 -25.1875 11.875 -24.988281 11.375 -24.59375 C 10.875 -24.207031 10.625 -23.726562 10.625 -23.15625 C 10.625 -22.539062 10.941406 -21.988281 11.578125 -21.5 C 12.222656 -21.007812 13.960938 -20.117188 16.796875 -18.828125 C 19.515625 -17.597656 21.398438 -16.28125 22.453125 -14.875 C 23.515625 -13.476562 24.046875 -11.710938 24.046875 -9.578125 Z M 24.046875 -9.578125 "/></g></g></g><g fill="#08080e" fill-opacity="1"><g transform="translate(135.57332, 110.773248)"><g><path d="M 40.765625 -45.6875 C 40.804688 -45.382812 40.75 -45.085938 40.59375 -44.796875 C 40.445312 -44.515625 40.285156 -44.265625 40.109375 -44.046875 C 39.546875 -43.304688 38.96875 -42.582031 38.375 -41.875 C 37.789062 -41.175781 37.191406 -40.457031 36.578125 -39.71875 C 36.179688 -39.195312 35.914062 -38.671875 35.78125 -38.140625 C 35.65625 -37.617188 35.414062 -37.050781 35.0625 -36.4375 L 32.3125 -30.875 C 31.53125 -29.164062 30.785156 -27.457031 30.078125 -25.75 C 29.378906 -24.050781 28.679688 -22.347656 27.984375 -20.640625 C 27.640625 -19.773438 27.25 -18.894531 26.8125 -18 C 26.375 -17.101562 26.046875 -16.191406 25.828125 -15.265625 C 25.609375 -14.441406 25.378906 -13.625 25.140625 -12.8125 C 24.898438 -12.007812 24.601562 -11.171875 24.25 -10.296875 C 23.03125 -7.234375 21.765625 -4.179688 20.453125 -1.140625 C 19.140625 1.890625 17.457031 4.71875 15.40625 7.34375 C 14.96875 7.957031 14.472656 8.476562 13.921875 8.90625 C 13.378906 9.34375 12.671875 9.5625 11.796875 9.5625 C 10.960938 9.5625 10.128906 9.441406 9.296875 9.203125 C 8.472656 8.960938 7.691406 8.648438 6.953125 8.265625 C 5.328125 7.390625 4.066406 6.148438 3.171875 4.546875 C 2.273438 2.953125 1.613281 1.304688 1.1875 -0.390625 C 0.75 -2.179688 0.453125 -4.003906 0.296875 -5.859375 C 0.140625 -7.722656 0.109375 -9.570312 0.203125 -11.40625 C 0.203125 -11.625 0.175781 -12.050781 0.125 -12.6875 C 0.0820312 -13.320312 0.0390625 -14.007812 0 -14.75 C -0.0390625 -15.488281 -0.03125 -16.140625 0.03125 -16.703125 C 0.09375 -17.273438 0.234375 -17.609375 0.453125 -17.703125 C 0.804688 -17.828125 1.082031 -17.722656 1.28125 -17.390625 C 1.476562 -17.066406 1.617188 -16.695312 1.703125 -16.28125 C 1.785156 -15.875 1.851562 -15.5625 1.90625 -15.34375 C 2.125 -13.457031 2.363281 -11.609375 2.625 -9.796875 C 2.882812 -7.984375 3.253906 -6.179688 3.734375 -4.390625 C 3.992188 -3.472656 4.273438 -2.546875 4.578125 -1.609375 C 4.890625 -0.671875 5.222656 0.234375 5.578125 1.109375 C 5.796875 1.722656 6.085938 2.410156 6.453125 3.171875 C 6.828125 3.941406 7.34375 4.5 8 4.84375 C 8.65625 5.195312 9.253906 5.207031 9.796875 4.875 C 10.347656 4.550781 10.863281 4.050781 11.34375 3.375 C 11.820312 2.695312 12.234375 2 12.578125 1.28125 C 12.929688 0.5625 13.195312 0.00390625 13.375 -0.390625 C 15.125 -3.890625 16.675781 -7.460938 18.03125 -11.109375 C 19.382812 -14.753906 20.738281 -18.394531 22.09375 -22.03125 C 23.351562 -25.519531 24.671875 -29.035156 26.046875 -32.578125 C 27.429688 -36.117188 29.128906 -39.484375 31.140625 -42.671875 C 30.222656 -42.316406 29.316406 -42.039062 28.421875 -41.84375 C 27.523438 -41.65625 26.613281 -41.425781 25.6875 -41.15625 C 24.863281 -40.9375 24.054688 -40.640625 23.265625 -40.265625 C 22.484375 -39.898438 21.675781 -39.609375 20.84375 -39.390625 C 20.144531 -39.210938 19.25 -38.972656 18.15625 -38.671875 C 17.0625 -38.367188 16.054688 -37.972656 15.140625 -37.484375 C 14.222656 -37.003906 13.632812 -36.351562 13.375 -35.53125 C 13.195312 -34.914062 13.304688 -34.28125 13.703125 -33.625 C 14.097656 -32.96875 14.46875 -32.398438 14.8125 -31.921875 C 14.945312 -31.742188 15.195312 -31.476562 15.5625 -31.125 C 15.9375 -30.78125 16.265625 -30.429688 16.546875 -30.078125 C 16.835938 -29.734375 16.875 -29.429688 16.65625 -29.171875 C 16.601562 -29.128906 16.390625 -29.03125 16.015625 -28.875 C 15.648438 -28.71875 15.445312 -28.640625 15.40625 -28.640625 C 14.832031 -28.597656 14.21875 -28.796875 13.5625 -29.234375 C 12.90625 -29.671875 12.359375 -30.085938 11.921875 -30.484375 L 10.546875 -31.71875 C 10.242188 -31.9375 9.972656 -32.144531 9.734375 -32.34375 C 9.492188 -32.539062 9.265625 -32.835938 9.046875 -33.234375 C 8.867188 -33.535156 8.722656 -33.828125 8.609375 -34.109375 C 8.503906 -34.398438 8.453125 -34.695312 8.453125 -35 C 8.546875 -36.132812 8.992188 -36.929688 9.796875 -37.390625 C 10.609375 -37.847656 11.425781 -38.296875 12.25 -38.734375 C 13.476562 -39.347656 14.8125 -39.835938 16.25 -40.203125 C 17.695312 -40.578125 19.117188 -40.960938 20.515625 -41.359375 C 20.953125 -41.492188 21.3125 -41.644531 21.59375 -41.8125 C 21.882812 -41.988281 22.222656 -42.164062 22.609375 -42.34375 C 23.265625 -42.644531 23.953125 -42.882812 24.671875 -43.0625 C 25.398438 -43.238281 26.09375 -43.414062 26.75 -43.59375 C 27.664062 -43.894531 28.582031 -44.175781 29.5 -44.4375 C 30.414062 -44.695312 31.332031 -44.960938 32.25 -45.234375 C 32.644531 -45.359375 32.863281 -45.410156 32.90625 -45.390625 C 32.945312 -45.367188 33.117188 -45.507812 33.421875 -45.8125 C 33.640625 -45.988281 33.816406 -46.195312 33.953125 -46.4375 C 34.085938 -46.675781 34.195312 -46.84375 34.28125 -46.9375 C 34.71875 -47.457031 35.4375 -47.757812 36.4375 -47.84375 C 37.445312 -47.9375 38.398438 -47.816406 39.296875 -47.484375 C 40.191406 -47.160156 40.679688 -46.5625 40.765625 -45.6875 Z M 27.203125 -23.734375 C 27.722656 -24.867188 28.15625 -26.113281 28.5 -27.46875 C 28.851562 -28.820312 29.273438 -30.066406 29.765625 -31.203125 C 29.367188 -30.410156 28.984375 -29.628906 28.609375 -28.859375 C 28.234375 -28.097656 27.894531 -27.304688 27.59375 -26.484375 L 23.46875 -15.671875 C 24.03125 -17.109375 24.640625 -18.457031 25.296875 -19.71875 C 25.953125 -20.988281 26.585938 -22.328125 27.203125 -23.734375 Z M 27.203125 -23.734375 "/></g></g></g><g fill="#08080e" fill-opacity="1"><g transform="translate(162.775833, 110.773248)"><g><path d="M 33.359375 -15.796875 C 33.453125 -15.054688 33.234375 -14.3125 32.703125 -13.5625 C 32.179688 -12.820312 31.789062 -12.144531 31.53125 -11.53125 C 31.09375 -10.570312 30.632812 -9.632812 30.15625 -8.71875 C 29.675781 -7.800781 29.171875 -6.90625 28.640625 -6.03125 C 28.023438 -5.070312 27.398438 -4.117188 26.765625 -3.171875 C 26.140625 -2.234375 25.457031 -1.328125 24.71875 -0.453125 C 24.144531 0.285156 23.453125 1.046875 22.640625 1.828125 C 21.835938 2.617188 20.929688 3.101562 19.921875 3.28125 C 18.828125 3.457031 17.851562 3.171875 17 2.421875 C 16.15625 1.679688 15.554688 0.832031 15.203125 -0.125 C 14.421875 -2.050781 14.203125 -4.007812 14.546875 -6 C 14.898438 -7.988281 15.359375 -9.921875 15.921875 -11.796875 C 15.921875 -11.796875 15.921875 -11.914062 15.921875 -12.15625 C 15.921875 -12.394531 15.945312 -12.625 16 -12.84375 C 15.6875 -12.363281 15.320312 -11.847656 14.90625 -11.296875 C 14.5 -10.753906 14.140625 -10.242188 13.828125 -9.765625 C 13.429688 -9.148438 13.066406 -8.535156 12.734375 -7.921875 C 12.410156 -7.316406 12.035156 -6.707031 11.609375 -6.09375 C 11.515625 -5.96875 11.160156 -5.539062 10.546875 -4.8125 C 9.941406 -4.09375 9.253906 -3.316406 8.484375 -2.484375 C 7.722656 -1.660156 7.015625 -0.992188 6.359375 -0.484375 C 5.703125 0.015625 5.285156 0.132812 5.109375 -0.125 C 5.109375 -0.125 5.238281 -0.191406 5.5 -0.328125 C 5.769531 -0.460938 5.878906 -0.550781 5.828125 -0.59375 C 5.003906 -0.0195312 4.085938 0.109375 3.078125 -0.203125 C 3.296875 -0.0664062 3.382812 0 3.34375 0 C 2.863281 0.0390625 2.414062 -0.128906 2 -0.515625 C 1.582031 -0.910156 1.234375 -1.367188 0.953125 -1.890625 C 0.671875 -2.421875 0.460938 -2.863281 0.328125 -3.21875 C 0.0664062 -4.132812 -0.0507812 -5.082031 -0.03125 -6.0625 C -0.0078125 -7.039062 0.0859375 -7.992188 0.265625 -8.921875 C 0.609375 -10.835938 1.171875 -12.78125 1.953125 -14.75 C 2.742188 -16.71875 3.6875 -18.507812 4.78125 -20.125 C 5.09375 -20.519531 5.398438 -20.921875 5.703125 -21.328125 C 6.003906 -21.742188 6.375 -22.109375 6.8125 -22.421875 C 7.070312 -22.640625 7.320312 -22.800781 7.5625 -22.90625 C 7.8125 -23.019531 8.085938 -23.160156 8.390625 -23.328125 C 8.867188 -23.765625 9.359375 -24.132812 9.859375 -24.4375 C 10.367188 -24.75 10.972656 -24.90625 11.671875 -24.90625 C 12.765625 -24.90625 13.648438 -24.566406 14.328125 -23.890625 C 15.003906 -23.210938 15.535156 -22.390625 15.921875 -21.421875 C 16.316406 -20.460938 16.625 -19.570312 16.84375 -18.75 C 17.363281 -19.445312 18.003906 -20.113281 18.765625 -20.75 C 19.535156 -21.382812 20.347656 -21.753906 21.203125 -21.859375 C 22.054688 -21.972656 22.875 -21.523438 23.65625 -20.515625 C 24.3125 -19.734375 24.519531 -19.023438 24.28125 -18.390625 C 24.039062 -17.753906 23.75 -17.066406 23.40625 -16.328125 C 22.789062 -15.179688 22.242188 -13.941406 21.765625 -12.609375 C 21.285156 -11.285156 20.910156 -10.03125 20.640625 -8.84375 C 20.691406 -8.9375 20.757812 -9.15625 20.84375 -9.5 C 20.925781 -9.851562 21.035156 -10.050781 21.171875 -10.09375 C 21.253906 -10.132812 21.226562 -9.816406 21.09375 -9.140625 C 20.96875 -8.460938 20.796875 -7.644531 20.578125 -6.6875 C 20.359375 -5.726562 20.191406 -4.785156 20.078125 -3.859375 C 19.972656 -2.941406 20 -2.222656 20.15625 -1.703125 C 20.3125 -1.179688 20.660156 -1.039062 21.203125 -1.28125 C 21.753906 -1.519531 22.597656 -2.335938 23.734375 -3.734375 C 24.734375 -5.003906 25.691406 -6.304688 26.609375 -7.640625 C 27.523438 -8.972656 28.421875 -10.316406 29.296875 -11.671875 C 29.691406 -12.273438 30.082031 -12.90625 30.46875 -13.5625 C 30.863281 -14.21875 31.28125 -14.851562 31.71875 -15.46875 C 31.851562 -15.644531 32.050781 -15.851562 32.3125 -16.09375 C 32.570312 -16.332031 32.8125 -16.460938 33.03125 -16.484375 C 33.25 -16.503906 33.359375 -16.273438 33.359375 -15.796875 Z M 14.546875 -15.34375 C 14.722656 -15.601562 14.820312 -15.773438 14.84375 -15.859375 C 14.863281 -15.953125 14.875 -16.128906 14.875 -16.390625 C 14.875 -16.566406 14.765625 -16.992188 14.546875 -17.671875 C 14.328125 -18.347656 14.140625 -19.007812 13.984375 -19.65625 C 13.835938 -20.3125 13.804688 -20.6875 13.890625 -20.78125 C 13.941406 -20.820312 14.019531 -20.675781 14.125 -20.34375 C 14.238281 -20.019531 14.347656 -19.691406 14.453125 -19.359375 C 14.554688 -19.035156 14.609375 -18.851562 14.609375 -18.8125 C 14.566406 -19.070312 14.488281 -19.453125 14.375 -19.953125 C 14.269531 -20.460938 14.109375 -20.9375 13.890625 -21.375 C 13.671875 -21.8125 13.367188 -22.03125 12.984375 -22.03125 C 12.273438 -22.03125 11.613281 -21.675781 11 -20.96875 C 10.394531 -20.269531 9.882812 -19.484375 9.46875 -18.609375 C 9.050781 -17.734375 8.710938 -17.035156 8.453125 -16.515625 C 7.796875 -15.035156 7.191406 -13.519531 6.640625 -11.96875 C 6.097656 -10.414062 5.695312 -8.828125 5.4375 -7.203125 C 5.476562 -7.421875 5.640625 -7.988281 5.921875 -8.90625 C 6.210938 -9.832031 6.578125 -10.914062 7.015625 -12.15625 C 7.453125 -13.40625 7.898438 -14.628906 8.359375 -15.828125 C 8.816406 -17.023438 9.253906 -18.015625 9.671875 -18.796875 C 10.085938 -19.585938 10.40625 -19.984375 10.625 -19.984375 C 10.445312 -19.941406 10.179688 -19.570312 9.828125 -18.875 C 9.484375 -18.175781 9.101562 -17.300781 8.6875 -16.25 C 8.269531 -15.207031 7.863281 -14.148438 7.46875 -13.078125 C 7.070312 -12.003906 6.742188 -11.0625 6.484375 -10.25 C 6.222656 -9.445312 6.070312 -8.957031 6.03125 -8.78125 C 5.988281 -8.601562 5.878906 -8.1875 5.703125 -7.53125 C 5.523438 -6.882812 5.425781 -6.253906 5.40625 -5.640625 C 5.382812 -5.023438 5.523438 -4.648438 5.828125 -4.515625 C 6.046875 -4.472656 6.34375 -4.601562 6.71875 -4.90625 C 7.09375 -5.21875 7.441406 -5.582031 7.765625 -6 C 8.097656 -6.414062 8.304688 -6.6875 8.390625 -6.8125 C 9.660156 -8.34375 10.835938 -9.914062 11.921875 -11.53125 L 13.640625 -13.96875 C 13.765625 -14.1875 13.90625 -14.414062 14.0625 -14.65625 C 14.21875 -14.894531 14.378906 -15.125 14.546875 -15.34375 Z M 16.0625 -12.125 L 16.65625 -13.703125 L 16.328125 -13.234375 C 16.273438 -13.148438 16.21875 -12.941406 16.15625 -12.609375 C 16.09375 -12.285156 16.0625 -12.125 16.0625 -12.125 Z M 15.078125 -16.1875 C 15.253906 -16.363281 15.253906 -16.582031 15.078125 -16.84375 Z M 25.03125 -32.3125 C 25.164062 -32.269531 25.054688 -32.050781 24.703125 -31.65625 C 24.359375 -31.257812 23.976562 -30.863281 23.5625 -30.46875 C 23.144531 -30.082031 22.894531 -29.847656 22.8125 -29.765625 C 22.332031 -29.191406 21.765625 -28.65625 21.109375 -28.15625 C 20.453125 -27.65625 19.835938 -27.1875 19.265625 -26.75 C 19.140625 -26.65625 18.890625 -26.488281 18.515625 -26.25 C 18.140625 -26.007812 17.84375 -25.976562 17.625 -26.15625 C 17.40625 -26.332031 17.363281 -26.671875 17.5 -27.171875 C 17.632812 -27.671875 17.832031 -28.191406 18.09375 -28.734375 C 18.351562 -29.285156 18.523438 -29.648438 18.609375 -29.828125 L 21.046875 -34.015625 C 21.128906 -34.234375 21.160156 -34.40625 21.140625 -34.53125 C 21.117188 -34.664062 21.304688 -34.757812 21.703125 -34.8125 C 21.867188 -34.851562 22.09375 -34.835938 22.375 -34.765625 C 22.664062 -34.703125 22.832031 -34.671875 22.875 -34.671875 C 23.226562 -34.585938 23.566406 -34.457031 23.890625 -34.28125 C 24.222656 -34.101562 24.5 -33.84375 24.71875 -33.5 C 24.800781 -33.40625 24.863281 -33.207031 24.90625 -32.90625 C 24.945312 -32.601562 24.988281 -32.40625 25.03125 -32.3125 Z M 25.03125 -32.3125 "/></g></g></g><g fill="#ffffff" fill-opacity="1"><g transform="translate(132.676353, 107.876281)"><g><path d="M 40.765625 -45.6875 C 40.804688 -45.382812 40.75 -45.085938 40.59375 -44.796875 C 40.445312 -44.515625 40.285156 -44.265625 40.109375 -44.046875 C 39.546875 -43.304688 38.96875 -42.582031 38.375 -41.875 C 37.789062 -41.175781 37.191406 -40.457031 36.578125 -39.71875 C 36.179688 -39.195312 35.914062 -38.671875 35.78125 -38.140625 C 35.65625 -37.617188 35.414062 -37.050781 35.0625 -36.4375 L 32.3125 -30.875 C 31.53125 -29.164062 30.785156 -27.457031 30.078125 -25.75 C 29.378906 -24.050781 28.679688 -22.347656 27.984375 -20.640625 C 27.640625 -19.773438 27.25 -18.894531 26.8125 -18 C 26.375 -17.101562 26.046875 -16.191406 25.828125 -15.265625 C 25.609375 -14.441406 25.378906 -13.625 25.140625 -12.8125 C 24.898438 -12.007812 24.601562 -11.171875 24.25 -10.296875 C 23.03125 -7.234375 21.765625 -4.179688 20.453125 -1.140625 C 19.140625 1.890625 17.457031 4.71875 15.40625 7.34375 C 14.96875 7.957031 14.472656 8.476562 13.921875 8.90625 C 13.378906 9.34375 12.671875 9.5625 11.796875 9.5625 C 10.960938 9.5625 10.128906 9.441406 9.296875 9.203125 C 8.472656 8.960938 7.691406 8.648438 6.953125 8.265625 C 5.328125 7.390625 4.066406 6.148438 3.171875 4.546875 C 2.273438 2.953125 1.613281 1.304688 1.1875 -0.390625 C 0.75 -2.179688 0.453125 -4.003906 0.296875 -5.859375 C 0.140625 -7.722656 0.109375 -9.570312 0.203125 -11.40625 C 0.203125 -11.625 0.175781 -12.050781 0.125 -12.6875 C 0.0820312 -13.320312 0.0390625 -14.007812 0 -14.75 C -0.0390625 -15.488281 -0.03125 -16.140625 0.03125 -16.703125 C 0.09375 -17.273438 0.234375 -17.609375 0.453125 -17.703125 C 0.804688 -17.828125 1.082031 -17.722656 1.28125 -17.390625 C 1.476562 -17.066406 1.617188 -16.695312 1.703125 -16.28125 C 1.785156 -15.875 1.851562 -15.5625 1.90625 -15.34375 C 2.125 -13.457031 2.363281 -11.609375 2.625 -9.796875 C 2.882812 -7.984375 3.253906 -6.179688 3.734375 -4.390625 C 3.992188 -3.472656 4.273438 -2.546875 4.578125 -1.609375 C 4.890625 -0.671875 5.222656 0.234375 5.578125 1.109375 C 5.796875 1.722656 6.085938 2.410156 6.453125 3.171875 C 6.828125 3.941406 7.34375 4.5 8 4.84375 C 8.65625 5.195312 9.253906 5.207031 9.796875 4.875 C 10.347656 4.550781 10.863281 4.050781 11.34375 3.375 C 11.820312 2.695312 12.234375 2 12.578125 1.28125 C 12.929688 0.5625 13.195312 0.00390625 13.375 -0.390625 C 15.125 -3.890625 16.675781 -7.460938 18.03125 -11.109375 C 19.382812 -14.753906 20.738281 -18.394531 22.09375 -22.03125 C 23.351562 -25.519531 24.671875 -29.035156 26.046875 -32.578125 C 27.429688 -36.117188 29.128906 -39.484375 31.140625 -42.671875 C 30.222656 -42.316406 29.316406 -42.039062 28.421875 -41.84375 C 27.523438 -41.65625 26.613281 -41.425781 25.6875 -41.15625 C 24.863281 -40.9375 24.054688 -40.640625 23.265625 -40.265625 C 22.484375 -39.898438 21.675781 -39.609375 20.84375 -39.390625 C 20.144531 -39.210938 19.25 -38.972656 18.15625 -38.671875 C 17.0625 -38.367188 16.054688 -37.972656 15.140625 -37.484375 C 14.222656 -37.003906 13.632812 -36.351562 13.375 -35.53125 C 13.195312 -34.914062 13.304688 -34.28125 13.703125 -33.625 C 14.097656 -32.96875 14.46875 -32.398438 14.8125 -31.921875 C 14.945312 -31.742188 15.195312 -31.476562 15.5625 -31.125 C 15.9375 -30.78125 16.265625 -30.429688 16.546875 -30.078125 C 16.835938 -29.734375 16.875 -29.429688 16.65625 -29.171875 C 16.601562 -29.128906 16.390625 -29.03125 16.015625 -28.875 C 15.648438 -28.71875 15.445312 -28.640625 15.40625 -28.640625 C 14.832031 -28.597656 14.21875 -28.796875 13.5625 -29.234375 C 12.90625 -29.671875 12.359375 -30.085938 11.921875 -30.484375 L 10.546875 -31.71875 C 10.242188 -31.9375 9.972656 -32.144531 9.734375 -32.34375 C 9.492188 -32.539062 9.265625 -32.835938 9.046875 -33.234375 C 8.867188 -33.535156 8.722656 -33.828125 8.609375 -34.109375 C 8.503906 -34.398438 8.453125 -34.695312 8.453125 -35 C 8.546875 -36.132812 8.992188 -36.929688 9.796875 -37.390625 C 10.609375 -37.847656 11.425781 -38.296875 12.25 -38.734375 C 13.476562 -39.347656 14.8125 -39.835938 16.25 -40.203125 C 17.695312 -40.578125 19.117188 -40.960938 20.515625 -41.359375 C 20.953125 -41.492188 21.3125 -41.644531 21.59375 -41.8125 C 21.882812 -41.988281 22.222656 -42.164062 22.609375 -42.34375 C 23.265625 -42.644531 23.953125 -42.882812 24.671875 -43.0625 C 25.398438 -43.238281 26.09375 -43.414062 26.75 -43.59375 C 27.664062 -43.894531 28.582031 -44.175781 29.5 -44.4375 C 30.414062 -44.695312 31.332031 -44.960938 32.25 -45.234375 C 32.644531 -45.359375 32.863281 -45.410156 32.90625 -45.390625 C 32.945312 -45.367188 33.117188 -45.507812 33.421875 -45.8125 C 33.640625 -45.988281 33.816406 -46.195312 33.953125 -46.4375 C 34.085938 -46.675781 34.195312 -46.84375 34.28125 -46.9375 C 34.71875 -47.457031 35.4375 -47.757812 36.4375 -47.84375 C 37.445312 -47.9375 38.398438 -47.816406 39.296875 -47.484375 C 40.191406 -47.160156 40.679688 -46.5625 40.765625 -45.6875 Z M 27.203125 -23.734375 C 27.722656 -24.867188 28.15625 -26.113281 28.5 -27.46875 C 28.851562 -28.820312 29.273438 -30.066406 29.765625 -31.203125 C 29.367188 -30.410156 28.984375 -29.628906 28.609375 -28.859375 C 28.234375 -28.097656 27.894531 -27.304688 27.59375 -26.484375 L 23.46875 -15.671875 C 24.03125 -17.109375 24.640625 -18.457031 25.296875 -19.71875 C 25.953125 -20.988281 26.585938 -22.328125 27.203125 -23.734375 Z M 27.203125 -23.734375 "/></g></g></g><g fill="#ffffff" fill-opacity="1"><g transform="translate(159.878866, 107.876281)"><g><path d="M 33.359375 -15.796875 C 33.453125 -15.054688 33.234375 -14.3125 32.703125 -13.5625 C 32.179688 -12.820312 31.789062 -12.144531 31.53125 -11.53125 C 31.09375 -10.570312 30.632812 -9.632812 30.15625 -8.71875 C 29.675781 -7.800781 29.171875 -6.90625 28.640625 -6.03125 C 28.023438 -5.070312 27.398438 -4.117188 26.765625 -3.171875 C 26.140625 -2.234375 25.457031 -1.328125 24.71875 -0.453125 C 24.144531 0.285156 23.453125 1.046875 22.640625 1.828125 C 21.835938 2.617188 20.929688 3.101562 19.921875 3.28125 C 18.828125 3.457031 17.851562 3.171875 17 2.421875 C 16.15625 1.679688 15.554688 0.832031 15.203125 -0.125 C 14.421875 -2.050781 14.203125 -4.007812 14.546875 -6 C 14.898438 -7.988281 15.359375 -9.921875 15.921875 -11.796875 C 15.921875 -11.796875 15.921875 -11.914062 15.921875 -12.15625 C 15.921875 -12.394531 15.945312 -12.625 16 -12.84375 C 15.6875 -12.363281 15.320312 -11.847656 14.90625 -11.296875 C 14.5 -10.753906 14.140625 -10.242188 13.828125 -9.765625 C 13.429688 -9.148438 13.066406 -8.535156 12.734375 -7.921875 C 12.410156 -7.316406 12.035156 -6.707031 11.609375 -6.09375 C 11.515625 -5.96875 11.160156 -5.539062 10.546875 -4.8125 C 9.941406 -4.09375 9.253906 -3.316406 8.484375 -2.484375 C 7.722656 -1.660156 7.015625 -0.992188 6.359375 -0.484375 C 5.703125 0.015625 5.285156 0.132812 5.109375 -0.125 C 5.109375 -0.125 5.238281 -0.191406 5.5 -0.328125 C 5.769531 -0.460938 5.878906 -0.550781 5.828125 -0.59375 C 5.003906 -0.0195312 4.085938 0.109375 3.078125 -0.203125 C 3.296875 -0.0664062 3.382812 0 3.34375 0 C 2.863281 0.0390625 2.414062 -0.128906 2 -0.515625 C 1.582031 -0.910156 1.234375 -1.367188 0.953125 -1.890625 C 0.671875 -2.421875 0.460938 -2.863281 0.328125 -3.21875 C 0.0664062 -4.132812 -0.0507812 -5.082031 -0.03125 -6.0625 C -0.0078125 -7.039062 0.0859375 -7.992188 0.265625 -8.921875 C 0.609375 -10.835938 1.171875 -12.78125 1.953125 -14.75 C 2.742188 -16.71875 3.6875 -18.507812 4.78125 -20.125 C 5.09375 -20.519531 5.398438 -20.921875 5.703125 -21.328125 C 6.003906 -21.742188 6.375 -22.109375 6.8125 -22.421875 C 7.070312 -22.640625 7.320312 -22.800781 7.5625 -22.90625 C 7.8125 -23.019531 8.085938 -23.160156 8.390625 -23.328125 C 8.867188 -23.765625 9.359375 -24.132812 9.859375 -24.4375 C 10.367188 -24.75 10.972656 -24.90625 11.671875 -24.90625 C 12.765625 -24.90625 13.648438 -24.566406 14.328125 -23.890625 C 15.003906 -23.210938 15.535156 -22.390625 15.921875 -21.421875 C 16.316406 -20.460938 16.625 -19.570312 16.84375 -18.75 C 17.363281 -19.445312 18.003906 -20.113281 18.765625 -20.75 C 19.535156 -21.382812 20.347656 -21.753906 21.203125 -21.859375 C 22.054688 -21.972656 22.875 -21.523438 23.65625 -20.515625 C 24.3125 -19.734375 24.519531 -19.023438 24.28125 -18.390625 C 24.039062 -17.753906 23.75 -17.066406 23.40625 -16.328125 C 22.789062 -15.179688 22.242188 -13.941406 21.765625 -12.609375 C 21.285156 -11.285156 20.910156 -10.03125 20.640625 -8.84375 C 20.691406 -8.9375 20.757812 -9.15625 20.84375 -9.5 C 20.925781 -9.851562 21.035156 -10.050781 21.171875 -10.09375 C 21.253906 -10.132812 21.226562 -9.816406 21.09375 -9.140625 C 20.96875 -8.460938 20.796875 -7.644531 20.578125 -6.6875 C 20.359375 -5.726562 20.191406 -4.785156 20.078125 -3.859375 C 19.972656 -2.941406 20 -2.222656 20.15625 -1.703125 C 20.3125 -1.179688 20.660156 -1.039062 21.203125 -1.28125 C 21.753906 -1.519531 22.597656 -2.335938 23.734375 -3.734375 C 24.734375 -5.003906 25.691406 -6.304688 26.609375 -7.640625 C 27.523438 -8.972656 28.421875 -10.316406 29.296875 -11.671875 C 29.691406 -12.273438 30.082031 -12.90625 30.46875 -13.5625 C 30.863281 -14.21875 31.28125 -14.851562 31.71875 -15.46875 C 31.851562 -15.644531 32.050781 -15.851562 32.3125 -16.09375 C 32.570312 -16.332031 32.8125 -16.460938 33.03125 -16.484375 C 33.25 -16.503906 33.359375 -16.273438 33.359375 -15.796875 Z M 14.546875 -15.34375 C 14.722656 -15.601562 14.820312 -15.773438 14.84375 -15.859375 C 14.863281 -15.953125 14.875 -16.128906 14.875 -16.390625 C 14.875 -16.566406 14.765625 -16.992188 14.546875 -17.671875 C 14.328125 -18.347656 14.140625 -19.007812 13.984375 -19.65625 C 13.835938 -20.3125 13.804688 -20.6875 13.890625 -20.78125 C 13.941406 -20.820312 14.019531 -20.675781 14.125 -20.34375 C 14.238281 -20.019531 14.347656 -19.691406 14.453125 -19.359375 C 14.554688 -19.035156 14.609375 -18.851562 14.609375 -18.8125 C 14.566406 -19.070312 14.488281 -19.453125 14.375 -19.953125 C 14.269531 -20.460938 14.109375 -20.9375 13.890625 -21.375 C 13.671875 -21.8125 13.367188 -22.03125 12.984375 -22.03125 C 12.273438 -22.03125 11.613281 -21.675781 11 -20.96875 C 10.394531 -20.269531 9.882812 -19.484375 9.46875 -18.609375 C 9.050781 -17.734375 8.710938 -17.035156 8.453125 -16.515625 C 7.796875 -15.035156 7.191406 -13.519531 6.640625 -11.96875 C 6.097656 -10.414062 5.695312 -8.828125 5.4375 -7.203125 C 5.476562 -7.421875 5.640625 -7.988281 5.921875 -8.90625 C 6.210938 -9.832031 6.578125 -10.914062 7.015625 -12.15625 C 7.453125 -13.40625 7.898438 -14.628906 8.359375 -15.828125 C 8.816406 -17.023438 9.253906 -18.015625 9.671875 -18.796875 C 10.085938 -19.585938 10.40625 -19.984375 10.625 -19.984375 C 10.445312 -19.941406 10.179688 -19.570312 9.828125 -18.875 C 9.484375 -18.175781 9.101562 -17.300781 8.6875 -16.25 C 8.269531 -15.207031 7.863281 -14.148438 7.46875 -13.078125 C 7.070312 -12.003906 6.742188 -11.0625 6.484375 -10.25 C 6.222656 -9.445312 6.070312 -8.957031 6.03125 -8.78125 C 5.988281 -8.601562 5.878906 -8.1875 5.703125 -7.53125 C 5.523438 -6.882812 5.425781 -6.253906 5.40625 -5.640625 C 5.382812 -5.023438 5.523438 -4.648438 5.828125 -4.515625 C 6.046875 -4.472656 6.34375 -4.601562 6.71875 -4.90625 C 7.09375 -5.21875 7.441406 -5.582031 7.765625 -6 C 8.097656 -6.414062 8.304688 -6.6875 8.390625 -6.8125 C 9.660156 -8.34375 10.835938 -9.914062 11.921875 -11.53125 L 13.640625 -13.96875 C 13.765625 -14.1875 13.90625 -14.414062 14.0625 -14.65625 C 14.21875 -14.894531 14.378906 -15.125 14.546875 -15.34375 Z M 16.0625 -12.125 L 16.65625 -13.703125 L 16.328125 -13.234375 C 16.273438 -13.148438 16.21875 -12.941406 16.15625 -12.609375 C 16.09375 -12.285156 16.0625 -12.125 16.0625 -12.125 Z M 15.078125 -16.1875 C 15.253906 -16.363281 15.253906 -16.582031 15.078125 -16.84375 Z M 25.03125 -32.3125 C 25.164062 -32.269531 25.054688 -32.050781 24.703125 -31.65625 C 24.359375 -31.257812 23.976562 -30.863281 23.5625 -30.46875 C 23.144531 -30.082031 22.894531 -29.847656 22.8125 -29.765625 C 22.332031 -29.191406 21.765625 -28.65625 21.109375 -28.15625 C 20.453125 -27.65625 19.835938 -27.1875 19.265625 -26.75 C 19.140625 -26.65625 18.890625 -26.488281 18.515625 -26.25 C 18.140625 -26.007812 17.84375 -25.976562 17.625 -26.15625 C 17.40625 -26.332031 17.363281 -26.671875 17.5 -27.171875 C 17.632812 -27.671875 17.832031 -28.191406 18.09375 -28.734375 C 18.351562 -29.285156 18.523438 -29.648438 18.609375 -29.828125 L 21.046875 -34.015625 C 21.128906 -34.234375 21.160156 -34.40625 21.140625 -34.53125 C 21.117188 -34.664062 21.304688 -34.757812 21.703125 -34.8125 C 21.867188 -34.851562 22.09375 -34.835938 22.375 -34.765625 C 22.664062 -34.703125 22.832031 -34.671875 22.875 -34.671875 C 23.226562 -34.585938 23.566406 -34.457031 23.890625 -34.28125 C 24.222656 -34.101562 24.5 -33.84375 24.71875 -33.5 C 24.800781 -33.40625 24.863281 -33.207031 24.90625 -32.90625 C 24.945312 -32.601562 24.988281 -32.40625 25.03125 -32.3125 Z M 25.03125 -32.3125 "/></g></g></g></svg>