<svg xmlns="http://www.w3.org/2000/svg" xmlns:xlink="http://www.w3.org/1999/xlink" width="491" zoomAndPan="magnify" viewBox="0 0 368.25 266.250005" height="355" preserveAspectRatio="xMidYMid meet" version="1.0"><defs><g/><clipPath id="83adb695f2"><path d="M 37.414062 9.246094 L 293.195312 9.246094 L 293.195312 265 L 37.414062 265 Z M 37.414062 9.246094 " clip-rule="nonzero"/></clipPath><clipPath id="c3e693331f"><path d="M 42.5 0 L 298.277344 0 L 298.277344 255.78125 L 42.5 255.78125 Z M 42.5 0 " clip-rule="nonzero"/></clipPath></defs><g clip-path="url(#83adb695f2)"><path fill="#373737" d="M 285.476562 131.679688 L 170.519531 16.722656 C 165.855469 12.121094 159.464844 9.246094 152.4375 9.246094 L 62.976562 9.246094 C 48.851562 9.246094 37.414062 20.683594 37.414062 34.804688 L 37.414062 124.265625 C 37.414062 131.359375 40.289062 137.75 44.953125 142.351562 L 159.976562 257.371094 C 164.578125 261.972656 170.96875 264.847656 177.996094 264.847656 C 185.027344 264.847656 191.480469 261.972656 196.082031 257.371094 L 285.542969 167.910156 C 290.144531 163.246094 293.019531 156.855469 293.019531 149.828125 C 293.019531 142.734375 290.144531 136.34375 285.476562 131.679688 Z M 82.144531 73.144531 C 71.539062 73.144531 62.976562 64.582031 62.976562 53.976562 C 62.976562 43.367188 71.539062 34.804688 82.144531 34.804688 C 92.753906 34.804688 101.316406 43.367188 101.316406 53.976562 C 101.316406 64.582031 92.753906 73.144531 82.144531 73.144531 Z M 82.144531 73.144531 " fill-opacity="1" fill-rule="nonzero"/></g><g clip-path="url(#c3e693331f)"><path fill="#ff9933" d="M 290.5625 122.433594 L 175.605469 7.476562 C 170.941406 2.875 164.550781 0 157.519531 0 L 68.058594 0 C 53.9375 0 42.5 11.4375 42.5 25.558594 L 42.5 115.023438 C 42.5 122.113281 45.375 128.503906 50.039062 133.105469 L 165.0625 248.128906 C 169.660156 252.730469 176.050781 255.605469 183.082031 255.605469 C 190.109375 255.605469 196.5625 252.730469 201.164062 248.128906 L 290.625 158.667969 C 295.226562 154 298.101562 147.613281 298.101562 140.582031 C 298.101562 133.488281 295.226562 127.097656 290.5625 122.433594 Z M 87.230469 63.902344 C 76.621094 63.902344 68.058594 55.339844 68.058594 44.730469 C 68.058594 34.125 76.621094 25.558594 87.230469 25.558594 C 97.835938 25.558594 106.398438 34.125 106.398438 44.730469 C 106.398438 55.339844 97.835938 63.902344 87.230469 63.902344 Z M 87.230469 63.902344 " fill-opacity="1" fill-rule="nonzero"/></g><g fill="#020207" fill-opacity="1"><g transform="translate(88.274681, 156.886378)"><g><path d="M 27.875 -22.796875 C 27.875 -19.066406 26.769531 -16.179688 24.5625 -14.140625 C 22.363281 -12.109375 19.238281 -11.09375 15.1875 -11.09375 L 12.65625 -11.09375 L 12.65625 0 L 3.609375 0 L 3.609375 -33.4375 L 15.1875 -33.4375 C 19.40625 -33.4375 22.570312 -32.515625 24.6875 -30.671875 C 26.8125 -28.828125 27.875 -26.203125 27.875 -22.796875 Z M 12.65625 -18.453125 L 14.296875 -18.453125 C 15.648438 -18.453125 16.726562 -18.832031 17.53125 -19.59375 C 18.332031 -20.363281 18.734375 -21.421875 18.734375 -22.765625 C 18.734375 -25.015625 17.484375 -26.140625 14.984375 -26.140625 L 12.65625 -26.140625 Z M 12.65625 -18.453125 "/></g></g></g><g fill="#020207" fill-opacity="1"><g transform="translate(115.525492, 156.886378)"><g><path d="M 23.46875 0 L 3.609375 0 L 3.609375 -33.4375 L 23.46875 -33.4375 L 23.46875 -26.1875 L 12.65625 -26.1875 L 12.65625 -20.921875 L 22.671875 -20.921875 L 22.671875 -13.671875 L 12.65625 -13.671875 L 12.65625 -7.359375 L 23.46875 -7.359375 Z M 23.46875 0 "/></g></g></g><g fill="#020207" fill-opacity="1"><g transform="translate(138.888541, 156.886378)"><g><path d="M 32 -17.421875 C 32 -11.847656 30.460938 -7.550781 27.390625 -4.53125 C 24.316406 -1.507812 20 0 14.4375 0 L 3.609375 0 L 3.609375 -33.4375 L 15.1875 -33.4375 C 20.550781 -33.4375 24.691406 -32.0625 27.609375 -29.3125 C 30.535156 -26.570312 32 -22.609375 32 -17.421875 Z M 22.625 -17.109375 C 22.625 -20.171875 22.015625 -22.441406 20.796875 -23.921875 C 19.585938 -25.398438 17.75 -26.140625 15.28125 -26.140625 L 12.65625 -26.140625 L 12.65625 -7.40625 L 14.65625 -7.40625 C 17.40625 -7.40625 19.421875 -8.203125 20.703125 -9.796875 C 21.984375 -11.390625 22.625 -13.828125 22.625 -17.109375 Z M 22.625 -17.109375 "/></g></g></g><g fill="#020207" fill-opacity="1"><g transform="translate(170.919016, 156.886378)"><g><path d="M 3.609375 0 L 3.609375 -33.4375 L 12.6875 -33.4375 L 12.6875 0 Z M 3.609375 0 "/></g></g></g><g fill="#020207" fill-opacity="1"><g transform="translate(184.882833, 156.886378)"><g><path d="M 32 -17.421875 C 32 -11.847656 30.460938 -7.550781 27.390625 -4.53125 C 24.316406 -1.507812 20 0 14.4375 0 L 3.609375 0 L 3.609375 -33.4375 L 15.1875 -33.4375 C 20.550781 -33.4375 24.691406 -32.0625 27.609375 -29.3125 C 30.535156 -26.570312 32 -22.609375 32 -17.421875 Z M 22.625 -17.109375 C 22.625 -20.171875 22.015625 -22.441406 20.796875 -23.921875 C 19.585938 -25.398438 17.75 -26.140625 15.28125 -26.140625 L 12.65625 -26.140625 L 12.65625 -7.40625 L 14.65625 -7.40625 C 17.40625 -7.40625 19.421875 -8.203125 20.703125 -9.796875 C 21.984375 -11.390625 22.625 -13.828125 22.625 -17.109375 Z M 22.625 -17.109375 "/></g></g></g><g fill="#020207" fill-opacity="1"><g transform="translate(216.913307, 156.886378)"><g><path d="M 34.90625 -16.765625 C 34.90625 -11.140625 33.523438 -6.863281 30.765625 -3.9375 C 28.003906 -1.007812 23.960938 0.453125 18.640625 0.453125 C 13.390625 0.453125 9.363281 -1.015625 6.5625 -3.953125 C 3.769531 -6.898438 2.375 -11.1875 2.375 -16.8125 C 2.375 -22.375 3.765625 -26.625 6.546875 -29.5625 C 9.335938 -32.5 13.382812 -33.96875 18.6875 -33.96875 C 24.007812 -33.96875 28.039062 -32.507812 30.78125 -29.59375 C 33.53125 -26.6875 34.90625 -22.410156 34.90625 -16.765625 Z M 11.890625 -16.765625 C 11.890625 -10.296875 14.140625 -7.0625 18.640625 -7.0625 C 20.929688 -7.0625 22.628906 -7.847656 23.734375 -9.421875 C 24.835938 -10.992188 25.390625 -13.441406 25.390625 -16.765625 C 25.390625 -20.109375 24.828125 -22.578125 23.703125 -24.171875 C 22.585938 -25.765625 20.914062 -26.5625 18.6875 -26.5625 C 14.15625 -26.5625 11.890625 -23.296875 11.890625 -16.765625 Z M 11.890625 -16.765625 "/></g></g></g><g fill="#020207" fill-opacity="1"><g transform="translate(251.893904, 156.886378)"><g><path d="M 25.484375 -10.15625 C 25.484375 -8.082031 24.957031 -6.238281 23.90625 -4.625 C 22.851562 -3.019531 21.332031 -1.769531 19.34375 -0.875 C 17.363281 0.0078125 15.039062 0.453125 12.375 0.453125 C 10.144531 0.453125 8.273438 0.296875 6.765625 -0.015625 C 5.253906 -0.328125 3.6875 -0.867188 2.0625 -1.640625 L 2.0625 -9.703125 C 3.78125 -8.816406 5.566406 -8.125 7.421875 -7.625 C 9.285156 -7.132812 11 -6.890625 12.5625 -6.890625 C 13.894531 -6.890625 14.875 -7.117188 15.5 -7.578125 C 16.132812 -8.046875 16.453125 -8.644531 16.453125 -9.375 C 16.453125 -9.832031 16.320312 -10.234375 16.0625 -10.578125 C 15.8125 -10.921875 15.40625 -11.265625 14.84375 -11.609375 C 14.289062 -11.960938 12.8125 -12.679688 10.40625 -13.765625 C 8.226562 -14.753906 6.59375 -15.710938 5.5 -16.640625 C 4.40625 -17.578125 3.59375 -18.644531 3.0625 -19.84375 C 2.539062 -21.050781 2.28125 -22.476562 2.28125 -24.125 C 2.28125 -27.207031 3.398438 -29.609375 5.640625 -31.328125 C 7.890625 -33.054688 10.972656 -33.921875 14.890625 -33.921875 C 18.347656 -33.921875 21.878906 -33.117188 25.484375 -31.515625 L 22.71875 -24.546875 C 19.59375 -25.972656 16.890625 -26.6875 14.609375 -26.6875 C 13.441406 -26.6875 12.585938 -26.476562 12.046875 -26.0625 C 11.515625 -25.65625 11.25 -25.148438 11.25 -24.546875 C 11.25 -23.890625 11.585938 -23.300781 12.265625 -22.78125 C 12.953125 -22.257812 14.796875 -21.3125 17.796875 -19.9375 C 20.679688 -18.644531 22.679688 -17.253906 23.796875 -15.765625 C 24.921875 -14.285156 25.484375 -12.414062 25.484375 -10.15625 Z M 25.484375 -10.15625 "/></g></g></g><g fill="#08080e" fill-opacity="1"><g transform="translate(143.815768, 117.369181)"><g><path d="M 43.203125 -48.421875 C 43.253906 -48.097656 43.195312 -47.785156 43.03125 -47.484375 C 42.875 -47.179688 42.703125 -46.914062 42.515625 -46.6875 C 41.910156 -45.894531 41.296875 -45.128906 40.671875 -44.390625 C 40.046875 -43.648438 39.410156 -42.882812 38.765625 -42.09375 C 38.347656 -41.539062 38.066406 -40.984375 37.921875 -40.421875 C 37.785156 -39.867188 37.535156 -39.269531 37.171875 -38.625 L 34.25 -32.71875 C 33.414062 -30.914062 32.628906 -29.109375 31.890625 -27.296875 C 31.148438 -25.492188 30.40625 -23.6875 29.65625 -21.875 C 29.289062 -20.957031 28.875 -20.019531 28.40625 -19.0625 C 27.945312 -18.113281 27.601562 -17.15625 27.375 -16.1875 C 27.132812 -15.300781 26.890625 -14.429688 26.640625 -13.578125 C 26.390625 -12.722656 26.078125 -11.832031 25.703125 -10.90625 C 24.410156 -7.664062 23.066406 -4.4375 21.671875 -1.21875 C 20.285156 2 18.503906 5 16.328125 7.78125 C 15.859375 8.425781 15.332031 8.976562 14.75 9.4375 C 14.175781 9.90625 13.425781 10.140625 12.5 10.140625 C 11.625 10.140625 10.742188 10.007812 9.859375 9.75 C 8.984375 9.5 8.148438 9.164062 7.359375 8.75 C 5.648438 7.820312 4.316406 6.515625 3.359375 4.828125 C 2.410156 3.140625 1.707031 1.390625 1.25 -0.421875 C 0.789062 -2.316406 0.476562 -4.25 0.3125 -6.21875 C 0.144531 -8.1875 0.109375 -10.144531 0.203125 -12.09375 C 0.203125 -12.320312 0.175781 -12.769531 0.125 -13.4375 C 0.0820312 -14.113281 0.0390625 -14.84375 0 -15.625 C -0.0390625 -16.414062 -0.03125 -17.113281 0.03125 -17.71875 C 0.101562 -18.320312 0.253906 -18.664062 0.484375 -18.75 C 0.859375 -18.894531 1.148438 -18.789062 1.359375 -18.4375 C 1.566406 -18.09375 1.710938 -17.703125 1.796875 -17.265625 C 1.890625 -16.828125 1.960938 -16.488281 2.015625 -16.25 C 2.242188 -14.257812 2.5 -12.300781 2.78125 -10.375 C 3.0625 -8.457031 3.453125 -6.550781 3.953125 -4.65625 C 4.234375 -3.6875 4.535156 -2.703125 4.859375 -1.703125 C 5.179688 -0.703125 5.53125 0.257812 5.90625 1.1875 C 6.132812 1.832031 6.445312 2.554688 6.84375 3.359375 C 7.238281 4.171875 7.78125 4.765625 8.46875 5.140625 C 9.164062 5.515625 9.800781 5.523438 10.375 5.171875 C 10.957031 4.828125 11.503906 4.296875 12.015625 3.578125 C 12.523438 2.859375 12.960938 2.113281 13.328125 1.34375 C 13.703125 0.582031 13.984375 -0.00390625 14.171875 -0.421875 C 16.023438 -4.117188 17.664062 -7.898438 19.09375 -11.765625 C 20.53125 -15.640625 21.96875 -19.5 23.40625 -23.34375 C 24.75 -27.050781 26.148438 -30.78125 27.609375 -34.53125 C 29.066406 -38.28125 30.863281 -41.84375 33 -45.21875 C 32.019531 -44.851562 31.054688 -44.566406 30.109375 -44.359375 C 29.160156 -44.148438 28.203125 -43.90625 27.234375 -43.625 C 26.347656 -43.394531 25.488281 -43.082031 24.65625 -42.6875 C 23.820312 -42.289062 22.96875 -41.976562 22.09375 -41.75 C 21.351562 -41.5625 20.398438 -41.304688 19.234375 -40.984375 C 18.078125 -40.660156 17.015625 -40.242188 16.046875 -39.734375 C 15.078125 -39.222656 14.453125 -38.53125 14.171875 -37.65625 C 13.984375 -37 14.097656 -36.320312 14.515625 -35.625 C 14.929688 -34.9375 15.328125 -34.335938 15.703125 -33.828125 C 15.835938 -33.640625 16.101562 -33.359375 16.5 -32.984375 C 16.894531 -32.617188 17.242188 -32.25 17.546875 -31.875 C 17.847656 -31.507812 17.878906 -31.1875 17.640625 -30.90625 C 17.597656 -30.863281 17.378906 -30.757812 16.984375 -30.59375 C 16.585938 -30.4375 16.367188 -30.359375 16.328125 -30.359375 C 15.722656 -30.304688 15.070312 -30.507812 14.375 -30.96875 C 13.6875 -31.4375 13.109375 -31.878906 12.640625 -32.296875 L 11.1875 -33.625 C 10.863281 -33.851562 10.570312 -34.070312 10.3125 -34.28125 C 10.0625 -34.488281 9.820312 -34.800781 9.59375 -35.21875 C 9.40625 -35.539062 9.253906 -35.851562 9.140625 -36.15625 C 9.023438 -36.457031 8.96875 -36.769531 8.96875 -37.09375 C 9.050781 -38.300781 9.519531 -39.144531 10.375 -39.625 C 11.238281 -40.113281 12.109375 -40.59375 12.984375 -41.0625 C 14.285156 -41.707031 15.695312 -42.222656 17.21875 -42.609375 C 18.75 -43.003906 20.257812 -43.410156 21.75 -43.828125 C 22.207031 -43.972656 22.585938 -44.132812 22.890625 -44.3125 C 23.191406 -44.5 23.550781 -44.6875 23.96875 -44.875 C 24.664062 -45.195312 25.394531 -45.453125 26.15625 -45.640625 C 26.914062 -45.828125 27.644531 -46.015625 28.34375 -46.203125 C 29.3125 -46.523438 30.28125 -46.820312 31.25 -47.09375 C 32.226562 -47.375 33.203125 -47.65625 34.171875 -47.9375 C 34.585938 -48.070312 34.816406 -48.128906 34.859375 -48.109375 C 34.910156 -48.085938 35.097656 -48.238281 35.421875 -48.5625 C 35.660156 -48.75 35.847656 -48.96875 35.984375 -49.21875 C 36.117188 -49.46875 36.234375 -49.640625 36.328125 -49.734375 C 36.796875 -50.296875 37.5625 -50.617188 38.625 -50.703125 C 39.6875 -50.796875 40.691406 -50.671875 41.640625 -50.328125 C 42.597656 -49.984375 43.117188 -49.347656 43.203125 -48.421875 Z M 28.828125 -25.140625 C 29.378906 -26.347656 29.84375 -27.671875 30.21875 -29.109375 C 30.59375 -30.546875 31.03125 -31.863281 31.53125 -33.0625 C 31.113281 -32.226562 30.707031 -31.40625 30.3125 -30.59375 C 29.925781 -29.789062 29.570312 -28.945312 29.25 -28.0625 L 24.875 -16.609375 C 25.46875 -18.128906 26.113281 -19.5625 26.8125 -20.90625 C 27.507812 -22.25 28.179688 -23.660156 28.828125 -25.140625 Z M 28.828125 -25.140625 "/></g></g></g><g fill="#08080e" fill-opacity="1"><g transform="translate(172.64337, 117.369181)"><g><path d="M 35.359375 -16.734375 C 35.453125 -15.953125 35.21875 -15.164062 34.65625 -14.375 C 34.101562 -13.59375 33.691406 -12.875 33.421875 -12.21875 C 32.953125 -11.207031 32.460938 -10.210938 31.953125 -9.234375 C 31.441406 -8.265625 30.910156 -7.316406 30.359375 -6.390625 C 29.710938 -5.367188 29.050781 -4.359375 28.375 -3.359375 C 27.707031 -2.367188 26.976562 -1.410156 26.1875 -0.484375 C 25.582031 0.296875 24.851562 1.101562 24 1.9375 C 23.144531 2.78125 22.1875 3.289062 21.125 3.46875 C 19.957031 3.65625 18.921875 3.351562 18.015625 2.5625 C 17.117188 1.78125 16.484375 0.878906 16.109375 -0.140625 C 15.273438 -2.179688 15.046875 -4.253906 15.421875 -6.359375 C 15.796875 -8.460938 16.28125 -10.507812 16.875 -12.5 C 16.875 -12.5 16.875 -12.625 16.875 -12.875 C 16.875 -13.132812 16.898438 -13.378906 16.953125 -13.609375 C 16.628906 -13.109375 16.242188 -12.566406 15.796875 -11.984375 C 15.359375 -11.398438 14.976562 -10.851562 14.65625 -10.34375 C 14.238281 -9.695312 13.851562 -9.050781 13.5 -8.40625 C 13.15625 -7.757812 12.753906 -7.109375 12.296875 -6.453125 C 12.203125 -6.316406 11.832031 -5.863281 11.1875 -5.09375 C 10.539062 -4.332031 9.8125 -3.507812 9 -2.625 C 8.1875 -1.75 7.429688 -1.046875 6.734375 -0.515625 C 6.046875 0.015625 5.609375 0.140625 5.421875 -0.140625 C 5.421875 -0.140625 5.554688 -0.207031 5.828125 -0.34375 C 6.109375 -0.488281 6.226562 -0.582031 6.1875 -0.625 C 5.300781 -0.0195312 4.328125 0.117188 3.265625 -0.203125 C 3.492188 -0.0664062 3.585938 0 3.546875 0 C 3.035156 0.0390625 2.554688 -0.144531 2.109375 -0.5625 C 1.671875 -0.976562 1.300781 -1.460938 1 -2.015625 C 0.707031 -2.566406 0.488281 -3.03125 0.34375 -3.40625 C 0.0703125 -4.375 -0.0507812 -5.378906 -0.03125 -6.421875 C -0.0078125 -7.460938 0.09375 -8.472656 0.28125 -9.453125 C 0.644531 -11.484375 1.242188 -13.539062 2.078125 -15.625 C 2.910156 -17.707031 3.910156 -19.609375 5.078125 -21.328125 C 5.398438 -21.742188 5.722656 -22.171875 6.046875 -22.609375 C 6.367188 -23.046875 6.757812 -23.429688 7.21875 -23.765625 C 7.5 -23.992188 7.765625 -24.164062 8.015625 -24.28125 C 8.273438 -24.394531 8.566406 -24.546875 8.890625 -24.734375 C 9.398438 -25.191406 9.921875 -25.582031 10.453125 -25.90625 C 10.984375 -26.226562 11.617188 -26.390625 12.359375 -26.390625 C 13.523438 -26.390625 14.460938 -26.03125 15.171875 -25.3125 C 15.890625 -24.601562 16.457031 -23.738281 16.875 -22.71875 C 17.289062 -21.695312 17.617188 -20.75 17.859375 -19.875 C 18.410156 -20.613281 19.09375 -21.316406 19.90625 -21.984375 C 20.71875 -22.660156 21.570312 -23.054688 22.46875 -23.171875 C 23.375 -23.285156 24.242188 -22.8125 25.078125 -21.75 C 25.773438 -20.914062 25.992188 -20.160156 25.734375 -19.484375 C 25.484375 -18.816406 25.171875 -18.085938 24.796875 -17.296875 C 24.148438 -16.085938 23.570312 -14.773438 23.0625 -13.359375 C 22.550781 -11.953125 22.15625 -10.625 21.875 -9.375 C 21.925781 -9.46875 22 -9.695312 22.09375 -10.0625 C 22.1875 -10.4375 22.300781 -10.648438 22.4375 -10.703125 C 22.53125 -10.742188 22.503906 -10.40625 22.359375 -9.6875 C 22.222656 -8.96875 22.039062 -8.097656 21.8125 -7.078125 C 21.582031 -6.066406 21.410156 -5.070312 21.296875 -4.09375 C 21.179688 -3.125 21.203125 -2.359375 21.359375 -1.796875 C 21.523438 -1.242188 21.894531 -1.09375 22.46875 -1.34375 C 23.050781 -1.601562 23.941406 -2.472656 25.140625 -3.953125 C 26.210938 -5.296875 27.234375 -6.675781 28.203125 -8.09375 C 29.171875 -9.507812 30.117188 -10.929688 31.046875 -12.359375 C 31.460938 -13.015625 31.878906 -13.6875 32.296875 -14.375 C 32.710938 -15.070312 33.15625 -15.742188 33.625 -16.390625 C 33.757812 -16.578125 33.96875 -16.796875 34.25 -17.046875 C 34.53125 -17.304688 34.785156 -17.445312 35.015625 -17.46875 C 35.242188 -17.488281 35.359375 -17.242188 35.359375 -16.734375 Z M 15.421875 -16.25 C 15.609375 -16.53125 15.710938 -16.71875 15.734375 -16.8125 C 15.753906 -16.90625 15.765625 -17.085938 15.765625 -17.359375 C 15.765625 -17.546875 15.648438 -18 15.421875 -18.71875 C 15.191406 -19.4375 14.992188 -20.140625 14.828125 -20.828125 C 14.671875 -21.523438 14.640625 -21.921875 14.734375 -22.015625 C 14.773438 -22.066406 14.851562 -21.914062 14.96875 -21.5625 C 15.082031 -21.21875 15.195312 -20.867188 15.3125 -20.515625 C 15.425781 -20.171875 15.484375 -19.976562 15.484375 -19.9375 C 15.441406 -20.21875 15.363281 -20.625 15.25 -21.15625 C 15.132812 -21.6875 14.957031 -22.179688 14.71875 -22.640625 C 14.488281 -23.109375 14.164062 -23.34375 13.75 -23.34375 C 13.007812 -23.34375 12.316406 -22.972656 11.671875 -22.234375 C 11.023438 -21.492188 10.476562 -20.660156 10.03125 -19.734375 C 9.59375 -18.804688 9.238281 -18.0625 8.96875 -17.5 C 8.269531 -15.925781 7.628906 -14.316406 7.046875 -12.671875 C 6.472656 -11.035156 6.046875 -9.359375 5.765625 -7.640625 C 5.804688 -7.867188 5.976562 -8.46875 6.28125 -9.4375 C 6.582031 -10.414062 6.960938 -11.5625 7.421875 -12.875 C 7.890625 -14.195312 8.367188 -15.492188 8.859375 -16.765625 C 9.347656 -18.046875 9.8125 -19.101562 10.25 -19.9375 C 10.6875 -20.769531 11.019531 -21.1875 11.25 -21.1875 C 11.0625 -21.144531 10.78125 -20.75 10.40625 -20 C 10.039062 -19.257812 9.640625 -18.332031 9.203125 -17.21875 C 8.765625 -16.113281 8.335938 -14.992188 7.921875 -13.859375 C 7.503906 -12.722656 7.15625 -11.726562 6.875 -10.875 C 6.59375 -10.019531 6.429688 -9.5 6.390625 -9.3125 C 6.347656 -9.125 6.234375 -8.679688 6.046875 -7.984375 C 5.859375 -7.296875 5.753906 -6.625 5.734375 -5.96875 C 5.710938 -5.320312 5.863281 -4.929688 6.1875 -4.796875 C 6.414062 -4.742188 6.726562 -4.878906 7.125 -5.203125 C 7.519531 -5.535156 7.890625 -5.921875 8.234375 -6.359375 C 8.578125 -6.796875 8.796875 -7.082031 8.890625 -7.21875 C 10.234375 -8.84375 11.484375 -10.507812 12.640625 -12.21875 L 14.453125 -14.796875 C 14.585938 -15.023438 14.734375 -15.265625 14.890625 -15.515625 C 15.054688 -15.773438 15.234375 -16.019531 15.421875 -16.25 Z M 17.015625 -12.859375 L 17.640625 -14.515625 L 17.296875 -14.03125 C 17.253906 -13.9375 17.195312 -13.71875 17.125 -13.375 C 17.050781 -13.03125 17.015625 -12.859375 17.015625 -12.859375 Z M 15.984375 -17.15625 C 16.160156 -17.34375 16.160156 -17.578125 15.984375 -17.859375 Z M 26.53125 -34.25 C 26.675781 -34.195312 26.5625 -33.960938 26.1875 -33.546875 C 25.820312 -33.128906 25.414062 -32.710938 24.96875 -32.296875 C 24.53125 -31.878906 24.265625 -31.625 24.171875 -31.53125 C 23.660156 -30.9375 23.054688 -30.367188 22.359375 -29.828125 C 21.671875 -29.296875 21.023438 -28.800781 20.421875 -28.34375 C 20.285156 -28.25 20.019531 -28.070312 19.625 -27.8125 C 19.226562 -27.5625 18.914062 -27.53125 18.6875 -27.71875 C 18.457031 -27.90625 18.410156 -28.265625 18.546875 -28.796875 C 18.679688 -29.328125 18.890625 -29.878906 19.171875 -30.453125 C 19.453125 -31.035156 19.640625 -31.421875 19.734375 -31.609375 L 22.296875 -36.046875 C 22.390625 -36.285156 22.425781 -36.472656 22.40625 -36.609375 C 22.382812 -36.742188 22.582031 -36.835938 23 -36.890625 C 23.175781 -36.929688 23.414062 -36.914062 23.71875 -36.84375 C 24.019531 -36.78125 24.195312 -36.75 24.25 -36.75 C 24.613281 -36.65625 24.96875 -36.515625 25.3125 -36.328125 C 25.664062 -36.140625 25.957031 -35.863281 26.1875 -35.5 C 26.28125 -35.40625 26.347656 -35.195312 26.390625 -34.875 C 26.441406 -34.550781 26.488281 -34.34375 26.53125 -34.25 Z M 26.53125 -34.25 "/></g></g></g><g fill="#ffffff" fill-opacity="1"><g transform="translate(140.745735, 114.29915)"><g><path d="M 43.203125 -48.421875 C 43.253906 -48.097656 43.195312 -47.785156 43.03125 -47.484375 C 42.875 -47.179688 42.703125 -46.914062 42.515625 -46.6875 C 41.910156 -45.894531 41.296875 -45.128906 40.671875 -44.390625 C 40.046875 -43.648438 39.410156 -42.882812 38.765625 -42.09375 C 38.347656 -41.539062 38.066406 -40.984375 37.921875 -40.421875 C 37.785156 -39.867188 37.535156 -39.269531 37.171875 -38.625 L 34.25 -32.71875 C 33.414062 -30.914062 32.628906 -29.109375 31.890625 -27.296875 C 31.148438 -25.492188 30.40625 -23.6875 29.65625 -21.875 C 29.289062 -20.957031 28.875 -20.019531 28.40625 -19.0625 C 27.945312 -18.113281 27.601562 -17.15625 27.375 -16.1875 C 27.132812 -15.300781 26.890625 -14.429688 26.640625 -13.578125 C 26.390625 -12.722656 26.078125 -11.832031 25.703125 -10.90625 C 24.410156 -7.664062 23.066406 -4.4375 21.671875 -1.21875 C 20.285156 2 18.503906 5 16.328125 7.78125 C 15.859375 8.425781 15.332031 8.976562 14.75 9.4375 C 14.175781 9.90625 13.425781 10.140625 12.5 10.140625 C 11.625 10.140625 10.742188 10.007812 9.859375 9.75 C 8.984375 9.5 8.148438 9.164062 7.359375 8.75 C 5.648438 7.820312 4.316406 6.515625 3.359375 4.828125 C 2.410156 3.140625 1.707031 1.390625 1.25 -0.421875 C 0.789062 -2.316406 0.476562 -4.25 0.3125 -6.21875 C 0.144531 -8.1875 0.109375 -10.144531 0.203125 -12.09375 C 0.203125 -12.320312 0.175781 -12.769531 0.125 -13.4375 C 0.0820312 -14.113281 0.0390625 -14.84375 0 -15.625 C -0.0390625 -16.414062 -0.03125 -17.113281 0.03125 -17.71875 C 0.101562 -18.320312 0.253906 -18.664062 0.484375 -18.75 C 0.859375 -18.894531 1.148438 -18.789062 1.359375 -18.4375 C 1.566406 -18.09375 1.710938 -17.703125 1.796875 -17.265625 C 1.890625 -16.828125 1.960938 -16.488281 2.015625 -16.25 C 2.242188 -14.257812 2.5 -12.300781 2.78125 -10.375 C 3.0625 -8.457031 3.453125 -6.550781 3.953125 -4.65625 C 4.234375 -3.6875 4.535156 -2.703125 4.859375 -1.703125 C 5.179688 -0.703125 5.53125 0.257812 5.90625 1.1875 C 6.132812 1.832031 6.445312 2.554688 6.84375 3.359375 C 7.238281 4.171875 7.78125 4.765625 8.46875 5.140625 C 9.164062 5.515625 9.800781 5.523438 10.375 5.171875 C 10.957031 4.828125 11.503906 4.296875 12.015625 3.578125 C 12.523438 2.859375 12.960938 2.113281 13.328125 1.34375 C 13.703125 0.582031 13.984375 -0.00390625 14.171875 -0.421875 C 16.023438 -4.117188 17.664062 -7.898438 19.09375 -11.765625 C 20.53125 -15.640625 21.96875 -19.5 23.40625 -23.34375 C 24.75 -27.050781 26.148438 -30.78125 27.609375 -34.53125 C 29.066406 -38.28125 30.863281 -41.84375 33 -45.21875 C 32.019531 -44.851562 31.054688 -44.566406 30.109375 -44.359375 C 29.160156 -44.148438 28.203125 -43.90625 27.234375 -43.625 C 26.347656 -43.394531 25.488281 -43.082031 24.65625 -42.6875 C 23.820312 -42.289062 22.96875 -41.976562 22.09375 -41.75 C 21.351562 -41.5625 20.398438 -41.304688 19.234375 -40.984375 C 18.078125 -40.660156 17.015625 -40.242188 16.046875 -39.734375 C 15.078125 -39.222656 14.453125 -38.53125 14.171875 -37.65625 C 13.984375 -37 14.097656 -36.320312 14.515625 -35.625 C 14.929688 -34.9375 15.328125 -34.335938 15.703125 -33.828125 C 15.835938 -33.640625 16.101562 -33.359375 16.5 -32.984375 C 16.894531 -32.617188 17.242188 -32.25 17.546875 -31.875 C 17.847656 -31.507812 17.878906 -31.1875 17.640625 -30.90625 C 17.597656 -30.863281 17.378906 -30.757812 16.984375 -30.59375 C 16.585938 -30.4375 16.367188 -30.359375 16.328125 -30.359375 C 15.722656 -30.304688 15.070312 -30.507812 14.375 -30.96875 C 13.6875 -31.4375 13.109375 -31.878906 12.640625 -32.296875 L 11.1875 -33.625 C 10.863281 -33.851562 10.570312 -34.070312 10.3125 -34.28125 C 10.0625 -34.488281 9.820312 -34.800781 9.59375 -35.21875 C 9.40625 -35.539062 9.253906 -35.851562 9.140625 -36.15625 C 9.023438 -36.457031 8.96875 -36.769531 8.96875 -37.09375 C 9.050781 -38.300781 9.519531 -39.144531 10.375 -39.625 C 11.238281 -40.113281 12.109375 -40.59375 12.984375 -41.0625 C 14.285156 -41.707031 15.695312 -42.222656 17.21875 -42.609375 C 18.75 -43.003906 20.257812 -43.410156 21.75 -43.828125 C 22.207031 -43.972656 22.585938 -44.132812 22.890625 -44.3125 C 23.191406 -44.5 23.550781 -44.6875 23.96875 -44.875 C 24.664062 -45.195312 25.394531 -45.453125 26.15625 -45.640625 C 26.914062 -45.828125 27.644531 -46.015625 28.34375 -46.203125 C 29.3125 -46.523438 30.28125 -46.820312 31.25 -47.09375 C 32.226562 -47.375 33.203125 -47.65625 34.171875 -47.9375 C 34.585938 -48.070312 34.816406 -48.128906 34.859375 -48.109375 C 34.910156 -48.085938 35.097656 -48.238281 35.421875 -48.5625 C 35.660156 -48.75 35.847656 -48.96875 35.984375 -49.21875 C 36.117188 -49.46875 36.234375 -49.640625 36.328125 -49.734375 C 36.796875 -50.296875 37.5625 -50.617188 38.625 -50.703125 C 39.6875 -50.796875 40.691406 -50.671875 41.640625 -50.328125 C 42.597656 -49.984375 43.117188 -49.347656 43.203125 -48.421875 Z M 28.828125 -25.140625 C 29.378906 -26.347656 29.84375 -27.671875 30.21875 -29.109375 C 30.59375 -30.546875 31.03125 -31.863281 31.53125 -33.0625 C 31.113281 -32.226562 30.707031 -31.40625 30.3125 -30.59375 C 29.925781 -29.789062 29.570312 -28.945312 29.25 -28.0625 L 24.875 -16.609375 C 25.46875 -18.128906 26.113281 -19.5625 26.8125 -20.90625 C 27.507812 -22.25 28.179688 -23.660156 28.828125 -25.140625 Z M 28.828125 -25.140625 "/></g></g></g><g fill="#ffffff" fill-opacity="1"><g transform="translate(169.573336, 114.29915)"><g><path d="M 35.359375 -16.734375 C 35.453125 -15.953125 35.21875 -15.164062 34.65625 -14.375 C 34.101562 -13.59375 33.691406 -12.875 33.421875 -12.21875 C 32.953125 -11.207031 32.460938 -10.210938 31.953125 -9.234375 C 31.441406 -8.265625 30.910156 -7.316406 30.359375 -6.390625 C 29.710938 -5.367188 29.050781 -4.359375 28.375 -3.359375 C 27.707031 -2.367188 26.976562 -1.410156 26.1875 -0.484375 C 25.582031 0.296875 24.851562 1.101562 24 1.9375 C 23.144531 2.78125 22.1875 3.289062 21.125 3.46875 C 19.957031 3.65625 18.921875 3.351562 18.015625 2.5625 C 17.117188 1.78125 16.484375 0.878906 16.109375 -0.140625 C 15.273438 -2.179688 15.046875 -4.253906 15.421875 -6.359375 C 15.796875 -8.460938 16.28125 -10.507812 16.875 -12.5 C 16.875 -12.5 16.875 -12.625 16.875 -12.875 C 16.875 -13.132812 16.898438 -13.378906 16.953125 -13.609375 C 16.628906 -13.109375 16.242188 -12.566406 15.796875 -11.984375 C 15.359375 -11.398438 14.976562 -10.851562 14.65625 -10.34375 C 14.238281 -9.695312 13.851562 -9.050781 13.5 -8.40625 C 13.15625 -7.757812 12.753906 -7.109375 12.296875 -6.453125 C 12.203125 -6.316406 11.832031 -5.863281 11.1875 -5.09375 C 10.539062 -4.332031 9.8125 -3.507812 9 -2.625 C 8.1875 -1.75 7.429688 -1.046875 6.734375 -0.515625 C 6.046875 0.015625 5.609375 0.140625 5.421875 -0.140625 C 5.421875 -0.140625 5.554688 -0.207031 5.828125 -0.34375 C 6.109375 -0.488281 6.226562 -0.582031 6.1875 -0.625 C 5.300781 -0.0195312 4.328125 0.117188 3.265625 -0.203125 C 3.492188 -0.0664062 3.585938 0 3.546875 0 C 3.035156 0.0390625 2.554688 -0.144531 2.109375 -0.5625 C 1.671875 -0.976562 1.300781 -1.460938 1 -2.015625 C 0.707031 -2.566406 0.488281 -3.03125 0.34375 -3.40625 C 0.0703125 -4.375 -0.0507812 -5.378906 -0.03125 -6.421875 C -0.0078125 -7.460938 0.09375 -8.472656 0.28125 -9.453125 C 0.644531 -11.484375 1.242188 -13.539062 2.078125 -15.625 C 2.910156 -17.707031 3.910156 -19.609375 5.078125 -21.328125 C 5.398438 -21.742188 5.722656 -22.171875 6.046875 -22.609375 C 6.367188 -23.046875 6.757812 -23.429688 7.21875 -23.765625 C 7.5 -23.992188 7.765625 -24.164062 8.015625 -24.28125 C 8.273438 -24.394531 8.566406 -24.546875 8.890625 -24.734375 C 9.398438 -25.191406 9.921875 -25.582031 10.453125 -25.90625 C 10.984375 -26.226562 11.617188 -26.390625 12.359375 -26.390625 C 13.523438 -26.390625 14.460938 -26.03125 15.171875 -25.3125 C 15.890625 -24.601562 16.457031 -23.738281 16.875 -22.71875 C 17.289062 -21.695312 17.617188 -20.75 17.859375 -19.875 C 18.410156 -20.613281 19.09375 -21.316406 19.90625 -21.984375 C 20.71875 -22.660156 21.570312 -23.054688 22.46875 -23.171875 C 23.375 -23.285156 24.242188 -22.8125 25.078125 -21.75 C 25.773438 -20.914062 25.992188 -20.160156 25.734375 -19.484375 C 25.484375 -18.816406 25.171875 -18.085938 24.796875 -17.296875 C 24.148438 -16.085938 23.570312 -14.773438 23.0625 -13.359375 C 22.550781 -11.953125 22.15625 -10.625 21.875 -9.375 C 21.925781 -9.46875 22 -9.695312 22.09375 -10.0625 C 22.1875 -10.4375 22.300781 -10.648438 22.4375 -10.703125 C 22.53125 -10.742188 22.503906 -10.40625 22.359375 -9.6875 C 22.222656 -8.96875 22.039062 -8.097656 21.8125 -7.078125 C 21.582031 -6.066406 21.410156 -5.070312 21.296875 -4.09375 C 21.179688 -3.125 21.203125 -2.359375 21.359375 -1.796875 C 21.523438 -1.242188 21.894531 -1.09375 22.46875 -1.34375 C 23.050781 -1.601562 23.941406 -2.472656 25.140625 -3.953125 C 26.210938 -5.296875 27.234375 -6.675781 28.203125 -8.09375 C 29.171875 -9.507812 30.117188 -10.929688 31.046875 -12.359375 C 31.460938 -13.015625 31.878906 -13.6875 32.296875 -14.375 C 32.710938 -15.070312 33.15625 -15.742188 33.625 -16.390625 C 33.757812 -16.578125 33.96875 -16.796875 34.25 -17.046875 C 34.53125 -17.304688 34.785156 -17.445312 35.015625 -17.46875 C 35.242188 -17.488281 35.359375 -17.242188 35.359375 -16.734375 Z M 15.421875 -16.25 C 15.609375 -16.53125 15.710938 -16.71875 15.734375 -16.8125 C 15.753906 -16.90625 15.765625 -17.085938 15.765625 -17.359375 C 15.765625 -17.546875 15.648438 -18 15.421875 -18.71875 C 15.191406 -19.4375 14.992188 -20.140625 14.828125 -20.828125 C 14.671875 -21.523438 14.640625 -21.921875 14.734375 -22.015625 C 14.773438 -22.066406 14.851562 -21.914062 14.96875 -21.5625 C 15.082031 -21.21875 15.195312 -20.867188 15.3125 -20.515625 C 15.425781 -20.171875 15.484375 -19.976562 15.484375 -19.9375 C 15.441406 -20.21875 15.363281 -20.625 15.25 -21.15625 C 15.132812 -21.6875 14.957031 -22.179688 14.71875 -22.640625 C 14.488281 -23.109375 14.164062 -23.34375 13.75 -23.34375 C 13.007812 -23.34375 12.316406 -22.972656 11.671875 -22.234375 C 11.023438 -21.492188 10.476562 -20.660156 10.03125 -19.734375 C 9.59375 -18.804688 9.238281 -18.0625 8.96875 -17.5 C 8.269531 -15.925781 7.628906 -14.316406 7.046875 -12.671875 C 6.472656 -11.035156 6.046875 -9.359375 5.765625 -7.640625 C 5.804688 -7.867188 5.976562 -8.46875 6.28125 -9.4375 C 6.582031 -10.414062 6.960938 -11.5625 7.421875 -12.875 C 7.890625 -14.195312 8.367188 -15.492188 8.859375 -16.765625 C 9.347656 -18.046875 9.8125 -19.101562 10.25 -19.9375 C 10.6875 -20.769531 11.019531 -21.1875 11.25 -21.1875 C 11.0625 -21.144531 10.78125 -20.75 10.40625 -20 C 10.039062 -19.257812 9.640625 -18.332031 9.203125 -17.21875 C 8.765625 -16.113281 8.335938 -14.992188 7.921875 -13.859375 C 7.503906 -12.722656 7.15625 -11.726562 6.875 -10.875 C 6.59375 -10.019531 6.429688 -9.5 6.390625 -9.3125 C 6.347656 -9.125 6.234375 -8.679688 6.046875 -7.984375 C 5.859375 -7.296875 5.753906 -6.625 5.734375 -5.96875 C 5.710938 -5.320312 5.863281 -4.929688 6.1875 -4.796875 C 6.414062 -4.742188 6.726562 -4.878906 7.125 -5.203125 C 7.519531 -5.535156 7.890625 -5.921875 8.234375 -6.359375 C 8.578125 -6.796875 8.796875 -7.082031 8.890625 -7.21875 C 10.234375 -8.84375 11.484375 -10.507812 12.640625 -12.21875 L 14.453125 -14.796875 C 14.585938 -15.023438 14.734375 -15.265625 14.890625 -15.515625 C 15.054688 -15.773438 15.234375 -16.019531 15.421875 -16.25 Z M 17.015625 -12.859375 L 17.640625 -14.515625 L 17.296875 -14.03125 C 17.253906 -13.9375 17.195312 -13.71875 17.125 -13.375 C 17.050781 -13.03125 17.015625 -12.859375 17.015625 -12.859375 Z M 15.984375 -17.15625 C 16.160156 -17.34375 16.160156 -17.578125 15.984375 -17.859375 Z M 26.53125 -34.25 C 26.675781 -34.195312 26.5625 -33.960938 26.1875 -33.546875 C 25.820312 -33.128906 25.414062 -32.710938 24.96875 -32.296875 C 24.53125 -31.878906 24.265625 -31.625 24.171875 -31.53125 C 23.660156 -30.9375 23.054688 -30.367188 22.359375 -29.828125 C 21.671875 -29.296875 21.023438 -28.800781 20.421875 -28.34375 C 20.285156 -28.25 20.019531 -28.070312 19.625 -27.8125 C 19.226562 -27.5625 18.914062 -27.53125 18.6875 -27.71875 C 18.457031 -27.90625 18.410156 -28.265625 18.546875 -28.796875 C 18.679688 -29.328125 18.890625 -29.878906 19.171875 -30.453125 C 19.453125 -31.035156 19.640625 -31.421875 19.734375 -31.609375 L 22.296875 -36.046875 C 22.390625 -36.285156 22.425781 -36.472656 22.40625 -36.609375 C 22.382812 -36.742188 22.582031 -36.835938 23 -36.890625 C 23.175781 -36.929688 23.414062 -36.914062 23.71875 -36.84375 C 24.019531 -36.78125 24.195312 -36.75 24.25 -36.75 C 24.613281 -36.65625 24.96875 -36.515625 25.3125 -36.328125 C 25.664062 -36.140625 25.957031 -35.863281 26.1875 -35.5 C 26.28125 -35.40625 26.347656 -35.195312 26.390625 -34.875 C 26.441406 -34.550781 26.488281 -34.34375 26.53125 -34.25 Z M 26.53125 -34.25 "/></g></g></g></svg>